<ttFont>
          <CharString index="0">
            hstem
            426 -56 callsubr
            -126 -75 -87 -241 -158 67 -28 95 -34 callsubr
            vhcurveto
            -97 callgsubr
            -153 66 -94 callgsubr
            return
          </CharString>
          <CharString index="1">
            -2 callsubr
            126 -57 65 -113 -151 -64 -96 -215 -158 64 -45 106 151 64 101 222 vhcurveto
            -90 -71 -103 callsubr
            return
          </CharString>
          <CharString index="2">
            -82 callgsubr
            90 5 -102 callsubr
            -65 callsubr
            vhcurveto
            return
          </CharString>
          <CharString index="3">
            -64 callgsubr
            208 -20 -105 callgsubr
            return
          </CharString>
          <CharString index="4">
            -70 callsubr
            -63 -27 37 90 17 1 18 2 20 hvcurveto
            142 12 28 50 80 hhcurveto
            65 24 -33 -90 -20 -1 -23 -2 -26 hvcurveto
            return
          </CharString>
          <CharString index="5">
            rmoveto
            3 37 2 34 32 vvcurveto
            165 -48 81 -136 -69 callgsubr
            vhcurveto
            -1 -14 -4 -71 -12 vvcurveto
            -179 44 -89 138 return
          </CharString>
          <CharString index="6">
            -71 callsubr
            170 -634 rmoveto
            -107 -21 callgsubr
            -115 hlineto
            -228 -700 -86 callsubr
            return
          </CharString>
          <CharString index="7">
            34 -7 72 -44 -16 callsubr
            -102 callgsubr
            return
          </CharString>
          <CharString index="8">
            -39 callsubr
            208 -20 hstem
            -106 callsubr
            return
          </CharString>
          <CharString index="9">
            -62 callgsubr
            -241 hlineto
            22 252 -68 callsubr
            20 229 rlineto
            241 hlineto
            -67 callgsubr
            return
          </CharString>
          <CharString index="10">
            rlineto
            -65 -38 callsubr
            65 hlineto
            -42 -475 -85 callsubr
            27 -2 32 hhcurveto
            96 34 57 75 6 hvcurveto
            41 470 rlineto
            return
          </CharString>
          <CharString index="11">
            43 17 -39 50 hhcurveto
            34 27 8 25 28 hvcurveto
            -62 callgsubr
            -23 -28 -20 -13 -35 hhcurveto
            return
          </CharString>
          <CharString index="12">
            hlineto
            48 554 rlineto
            70 -26 callsubr
            -227 hlineto
            -7 -73 -28 callsubr
            -48 -554 rlineto
            -70 -38 callsubr
            return
          </CharString>
          <CharString index="13">
            -151 -175 72 530 73 135 72 hstem
            323 427 rmoveto
            -62 callgsubr
            -121 hlineto
            8 85 rlineto
            29 3 20 21 36 hhcurveto
            36 24 -6 -5 20 hvcurveto
            6 72 rlineto
            4 -19 -31 7 -43 hhcurveto
            -84 -46 -43 -86 -8 hvcurveto
            -7 -78 -97 callsubr
            endchar
          </CharString>
          <CharString index="14">
            74 228 -93 callgsubr
            return
          </CharString>
          <CharString index="15">
            -107 -10 -21 -45 -51 hhcurveto
            -41 -16 28 66 150 29 60 55 41 17 -29 -68 -16 -1 -19 -2 -20 hvcurveto
            return
          </CharString>
          <CharString index="16">
            -62 callgsubr
            -70 -95 callsubr
            return
          </CharString>
          <CharString index="17">
            341 rmoveto
            1 7 1 16 6 vvcurveto
            54 -20 40 -37 8 vhcurveto
            45 15 23 32 75 vvcurveto
            89 -53 22 -65 -38 -46 -9 -2 -8 vhcurveto
            -5 -64 rlineto
            5 22 34 7 33 hhcurveto
            34 18 -8 -39 -24 0 -70 -72 hvcurveto
            -50 hlineto
            -5 -63 rlineto
            57 hlineto
            45 13 -23 -44 -71 -25 -37 -46 -33 -43 8 4 -17 hvcurveto
            -6 -64 rlineto
            -2 7 54 -9 37 hhcurveto
            83 52 34 107 10 hvcurveto
            return
          </CharString>
          <CharString index="18">
            hstem
            355 165 rmoveto
            67 -35 46 -93 19 vhcurveto
            -41 8 -18 17 32 vvcurveto
            39 15 42 65 54 26 -8 -8 33 vhcurveto
            -62 callgsubr
            5 -19 -40 10 -49 hhcurveto
            -112 -67 -44 -120 -60 37 -45 92 -21 hvcurveto
            43 -10 14 -16 -36 vvcurveto
            -37 -15 -53 -65 -47 -55 11 5 -23 vhcurveto
            1 callgsubr
            -6 22 40 -9 57 hhcurveto
            127 55 54 118 hvcurveto
            return
          </CharString>
          <CharString index="19">
            2 -53 -28 callsubr
            -74 callsubr
            -24 -289 rlineto
            return
          </CharString>
          <CharString index="20">
            -167 291 -21 110 -20 hstem
            213 270 rmoveto
            10 110 -22 callsubr
            -10 -110 rlineto
            endchar
          </CharString>
          <CharString index="21">
            rlineto
            89 hlineto
            54 177 rlineto
            197 hlineto
            23 -177 rlineto
            return
          </CharString>
          <CharString index="22">
            rlineto
            -35 -3 -21 -83 callsubr
            return
          </CharString>
          <CharString index="23">
            rmoveto
            -92 -7 callgsubr
            -109 hlineto
            125 -135 rlineto
            endchar
          </CharString>
          <CharString index="24">
            -20 -33 hhcurveto
            -16 -35 2 2 -21 hvcurveto
            -6 -71 rlineto
            -3 26 return
          </CharString>
          <CharString index="25">
            rmoveto
            220 -81 137 -229 -229 -91 -136 -221 -226 92 -131 228 228 82 135 222 vhcurveto
            -77 hmoveto
            -176 -43 -113 -190 -190 -53 112 177 179 53 110 190 190 43 -113 -176 vhcurveto
            return
          </CharString>
          <CharString index="26">
            -76 callsubr
            96 hlineto
            66 64 54 -64 rlineto
            return
          </CharString>
          <CharString index="27">
            rlineto
            -85 hlineto
            return
          </CharString>
          <CharString index="28">
            726 rmoveto
            -94 -8 callsubr
            -111 hlineto
            122 -115 rlineto
            return
          </CharString>
          <CharString index="29">
            -6 -26 -50 -9 -41 hhcurveto
            -57 -34 22 136 11 6 101 1 16 hvcurveto
            242 22 38 36 72 hhcurveto
            36 47 -7 -8 32 hvcurveto
            7 74 rlineto
            5 -15 -56 11 -27 hhcurveto
            -154 -64 -35 callsubr
            return
          </CharString>
          <CharString index="30">
            hlineto
            -6 -75 rlineto
            return
          </CharString>
          <CharString index="31">
            730 rmoveto
            -101 -8 callsubr
            -92 hlineto
            -120 -115 rlineto
            return
          </CharString>
          <CharString index="32">
            -60 callsubr
            -380 -77 callsubr
            return
          </CharString>
          <CharString index="33">
            43 500 -80 callsubr
            return
          </CharString>
          <CharString index="34">
            645 -48 callsubr
            -51 34 -40 51 63 37 44 58 5 vhcurveto
            -58 1 -65 callgsubr
            return
          </CharString>
          <CharString index="35">
            -81 callgsubr
            rlineto
            7 -28 -47 9 -33 hhcurveto
            -135 -65 -89 -239 return
          </CharString>
          <CharString index="36">
            rmoveto
            -165 hlineto
            114 382 rlineto
            return
          </CharString>
          <CharString index="37">
            rmoveto
            -130 -11 -33 -52 -75 hhcurveto
            return
          </CharString>
          <CharString index="38">
            rmoveto
            5 64 rlineto
            -50 hlineto
            13 143 rlineto
            -74 hlineto
            -13 -143 rlineto
            -77 hlineto
            101 314 rlineto
            -69 hlineto
            -101 -304 -6 -74 rlineto
            147 hlineto
            -11 -117 rlineto
            74 hlineto
            11 117 rlineto
            return
          </CharString>
          <CharString index="39">
            rlineto
            216 hlineto
            -62 callgsubr
            -216 hlineto
            return
          </CharString>
          <CharString index="40">
            8 -50 callgsubr
            -8 -100 return
          </CharString>
          <CharString index="41">
            rmoveto
            -80 hlineto
            -398 -910 -17 callsubr
            endchar
          </CharString>
          <CharString index="42">
            171 48 120 245 22 return
          </CharString>
          <CharString index="43">
            hlineto
            -63 callgsubr
            return
          </CharString>
          <CharString index="44">
            43 21 -21 177 75 448 -20 return
          </CharString>
          <CharString index="45">
            -20 130 -20 hstem
            326 -80 callgsubr
            return
          </CharString>
          <CharString index="46">
            -193 rmoveto
            -4 20 19 -3 24 hhcurveto
            68 49 31 72 43 -22 20 -55 7 hvcurveto
            return
          </CharString>
          <CharString index="47">
            rmoveto
            -50 callsubr
            return
          </CharString>
          <CharString index="48">
            rlineto
            -1 -8 -1 -17 -7 vvcurveto
            -73 38 -20 38 26 21 5 3 14 vhcurveto
            endchar
          </CharString>
          <CharString index="49">
            75 rmoveto
            -57 callgsubr
            4 2 17 1 13 hvcurveto
            return
          </CharString>
          <CharString index="50">
            -21 500 -20 return
          </CharString>
          <CharString index="51">
            370 rmoveto
            69 -39 68 -113 return
          </CharString>
          <CharString index="52">
            21 -21 700 -20 return
          </CharString>
          <CharString index="53">
            rlineto
            62 16 -9 -18 -28 -15 -6 -28 -15 -21 2 4 -18 hvcurveto
            endchar
          </CharString>
          <CharString index="54">
            -1 -7 72 139 70 162 71 return
          </CharString>
          <CharString index="55">
            rlineto
            140 hlineto
            -50 callsubr
            -140 hlineto
            18 200 -17 callgsubr
            -18 -200 rlineto
            -141 -77 callsubr
            141 hlineto
            return
          </CharString>
          <CharString index="56">
            207 82 207 rlineto
            -67 hlineto
            -107 -207 71 -207 rlineto
            return
          </CharString>
          <CharString index="57">
            6 75 rlineto
            return
          </CharString>
          <CharString index="58">
            75 158 -20 -5 callsubr
            -150 hlineto
            14 158 -17 callgsubr
            -14 -158 rlineto
            return
          </CharString>
          <CharString index="59">
            rmoveto
            4 1 4 4 vvcurveto
            53 -34 37 -54 -65 -38 -49 -64 return
          </CharString>
          <CharString index="60">
            610 -34 callgsubr
            return
          </CharString>
          <CharString index="61">
            21 -57 callsubr
            return
          </CharString>
          <CharString index="62">
            -7 73 568 73 return
          </CharString>
          <CharString index="63">
            152 -163 rmoveto
            -48 -19 35 70 14 1 17 1 17 hvcurveto
            139 13 32 78 94 hhcurveto
            30 21 -2 return
          </CharString>
          <CharString index="64">
            473 -41 callgsubr
            62 542 -47 callgsubr
            return
          </CharString>
          <CharString index="65">
            rmoveto
            9 -50 callgsubr
            -9 -100 rlineto
            return
          </CharString>
          <CharString index="66">
            735 -104 callgsubr
            return
          </CharString>
          <CharString index="67">
            hvcurveto
            -27 -320 0 callgsubr
            return
          </CharString>
          <CharString index="68">
            53 -7 70 374 70 return
          </CharString>
          <CharString index="69">
            hlineto
            -6 -73 rlineto
            return
          </CharString>
          <CharString index="70">
            38 275 75 hstem
            424 -31 callgsubr
            -325 -36 callsubr
          </CharString>
          <CharString index="71">
            -77 callsubr
            endchar
          </CharString>
          <CharString index="72">
            -51 -295 -26 hvcurveto
            -4 -47 -2 -41 -36 vvcurveto
            return
          </CharString>
          <CharString index="73">
            36 57 8 9 32 return
          </CharString>
          <CharString index="74">
            rmoveto
            3 38 2 34 30 vvcurveto
            205 -74 39 -115 -69 -93 -7 0 vhcurveto
            return
          </CharString>
          <CharString index="75">
            -149 -21 163 72 return
          </CharString>
          <CharString index="76">
            78 -7 73 634 -20 return
          </CharString>
          <CharString index="77">
            hhcurveto
            52 12 -29 -41 -11 -2 -22 -1 -12 -40 callsubr
            return
          </CharString>
          <CharString index="78">
            113 -21 414 -20 hstem
            return
          </CharString>
          <CharString index="79">
            rlineto
            70 hlineto
            return
          </CharString>
          <CharString index="80">
            -52 -36 39 -54 hhcurveto
            -29 -27 -5 -28 return
          </CharString>
          <CharString index="81">
            hlineto
            -33 callgsubr
            return
          </CharString>
          <CharString index="82">
            rlineto
            239 605 rmoveto
            51 18 -34 -69 -179 -40 -88 -96 return
          </CharString>
          <CharString index="83">
            0 76 624 -20 hstem
            385 hmoveto
            6 76 rlineto
            -223 hlineto
            return
          </CharString>
          <CharString index="84">
            -14 callgsubr
            hintmask 11010000
            return
          </CharString>
          <CharString index="85">
            rlineto
            -110 hlineto
            return
          </CharString>
          <CharString index="86">
            500 rmoveto
            return
          </CharString>
          <CharString index="87">
            rlineto
            0 95 -7 78 139 69 70 298 26 vhcurveto
            return
          </CharString>
          <CharString index="88">
            -167 -22 callgsubr
            165 -110 rmoveto
            return
          </CharString>
          <CharString index="89">
            rmoveto
            -219 -19 -48 -69 -62 hhcurveto
            -42 -53 4 0 hvcurveto
            return
          </CharString>
          <CharString index="90">
            rlineto
            80 hlineto
            return
          </CharString>
          <CharString index="91">
            -57 callsubr
            235 -20 return
          </CharString>
          <CharString index="92">
            hstemhm
            hintmask 10110000
            return
          </CharString>
          <CharString index="93">
            hvcurveto
            -6 -73 rlineto
            return
          </CharString>
          <CharString index="94">
            -20 hstem
            479 280 rmoveto
            9 105 -364 return
          </CharString>
          <CharString index="95">
            -90 -44 -10 callgsubr
            65 hlineto
            -81 157 rmoveto
            return
          </CharString>
          <CharString index="96">
            21 -21 435 72 return
          </CharString>
          <CharString index="97">
            418 -79 -21 121 -21 117 64 return
          </CharString>
          <CharString index="98">
            -46 callsubr
            hstem
            return
          </CharString>
          <CharString index="99">
            115 rlineto
            return
          </CharString>
          <CharString index="100">
            17 35 hhcurveto
            return
          </CharString>
          <CharString index="101">
            0 75 246 58 270 58 hstem
            return
          </CharString>
          <CharString index="102">
            hstem
            -3 callgsubr
            return
          </CharString>
          <CharString index="103">
            rlineto
            -65 hlineto
            return
          </CharString>
          <CharString index="104">
            75 200 -20 hstem
            256 hmoveto
            return
          </CharString>
          <CharString index="105">
            459 316 rmoveto
            return
          </CharString>
          <CharString index="106">
            rlineto
            -87 hlineto
            return
          </CharString>
          <CharString index="107">
            hhcurveto
            -151 return
          </CharString>
        <CharString name=".notdef">
          -61 callgsubr
        </CharString>
        <CharString name=".null">
          -457 endchar
        </CharString>
        <CharString name="A">
          -63 callsubr
          hstem
          -68 callgsubr
          endchar
        </CharString>
        <CharString name="AE">
          286 0 73 104 77 71 73 229 73 hstem
          678 hmoveto
          -62 callgsubr
          -223 hlineto
          -8 252 rlineto
          228 hlineto
          -62 callgsubr
          -237 hlineto
          -7 229 rlineto
          269 -26 callsubr
          -406 hlineto
          -298 -44 callgsubr
          90 hlineto
          72 177 rlineto
          198 hlineto
          5 -177 rlineto
          -16 627 rmoveto
          9 -373 rlineto
          -165 hlineto
          endchar
        </CharString>
        <CharString name="Aacute">
          -63 callsubr
          161 -20 hstem
          297 -85 callgsubr
          132 -474 -101 callsubr
          endchar
        </CharString>
        <CharString name="Acircumflex">
          -63 callsubr
          165 -20 hstem
          459 -81 callsubr
          -16 -478 -101 callsubr
          endchar
        </CharString>
        <CharString name="Adieresis">
          -63 callsubr
          55 80 hstem
          -68 callgsubr
          68 -41 callsubr
          endchar
        </CharString>
        <CharString name="Agrave">
          -63 callsubr
          161 -20 hstem
          390 -79 callsubr
          39 -474 -101 callsubr
          endchar
        </CharString>
        <CharString name="Aring">
          43 21 -21 177 75 453 -20 118 52 hstem
          401 753 -48 callsubr
          -26 9 -23 15 -17 vhcurveto
          -220 -676 -86 callsubr
          87 hlineto
          -103 672 24 19 11 28 4 34 rlinecurve
          -55 -501 -71 callsubr
          48 120 -65 callgsubr
          endchar
        </CharString>
        <CharString name="Atilde">
          -63 callsubr
          51 -14 callgsubr
          hintmask 11101000
          -68 callgsubr
          -203 734 -55 callgsubr
          hintmask 11110000
          -96 callsubr
          hintmask 11101000
          -83 callgsubr
        </CharString>
        <CharString name="B">
          55 -7 73 266 72 231 72 hstem
          370 204 rmoveto
          -117 -10 -47 -21 -54 hhcurveto
          -42 -49 5 0 hvcurveto
          23 261 rlineto
          93 hlineto
          64 24 -31 -65 -10 -1 -10 -1 -12 hvcurveto
          13 313 rmoveto
          -106 -10 -53 -7 -40 hhcurveto
          -83 hlineto
          20 225 rlineto
          0 35 6 48 64 21 -26 -59 -10 -1 -11 -1 -12 vhcurveto
          76 -316 rmoveto
          1 8 1 18 7 vvcurveto
          89 -48 37 -36 13 vhcurveto
          45 18 49 46 114 vvcurveto
          110 -71 46 -106 -65 -93 -16 callgsubr
          0 85 -7 84 131 70 49 159 14 vhcurveto
          endchar
        </CharString>
        <CharString name="C">
          -34 -7 75 564 75 hstem
          375 83 rmoveto
          -78 callsubr
          -194 59 -50 117 33 57 11 6 22 vhcurveto
          endchar
        </CharString>
        <CharString name="CR">
          -197 endchar
        </CharString>
        <CharString name="Ccedilla">
          -34 -200 63 130 75 564 75 hstem
          152 -61 callsubr
          4 20 34 1 53 10 22 6 rlinecurve
          -33 callgsubr
          -78 callsubr
          -157 39 -63 76 -18 vhcurveto
          -18 -75 -54 callsubr
        </CharString>
        <CharString name="D">
          69 -45 callsubr
          hstem
          392 354 -18 callsubr
          49 560 -27 callgsubr
          90 7 -33 callsubr
          -61 -700 -20 callsubr
          endchar
        </CharString>
        <CharString name="Delta">
          53 0 73 627 -20 hstem
          475 hmoveto
          -110 -21 callgsubr
          -111 hlineto
          -239 -44 callgsubr
          362 73 rmoveto
          -248 hlineto
          175 554 rlineto
          endchar
        </CharString>
        <CharString name="E">
          -52 callgsubr
          hstem
          403 hmoveto
          -98 callsubr
          endchar
        </CharString>
        <CharString name="Eacute">
          -52 callgsubr
          141 -20 hstem
          318 -85 callgsubr
          168 -726 rmoveto
          -98 callsubr
          endchar
        </CharString>
        <CharString name="Ecircumflex">
          -52 callgsubr
          145 -20 hstem
          459 -81 callsubr
          41 -730 rmoveto
          -98 callsubr
          endchar
        </CharString>
        <CharString name="Edieresis">
          -52 callgsubr
          35 80 hstem
          403 hmoveto
          -98 callsubr
          373 -41 callsubr
          endchar
        </CharString>
        <CharString name="Egrave">
          -52 callgsubr
          141 -20 hstem
          380 -79 callsubr
          106 -726 rmoveto
          -98 callsubr
          endchar
        </CharString>
        <CharString name="Eth">
          79 -7 73 259 75 234 73 hstem
          492 361 -33 callsubr
          -26 -300 rlineto
          -71 -77 callsubr
          70 hlineto
          -28 -325 -20 callsubr
          -90 -7 -18 callsubr
          22 255 rlineto
          113 hlineto
          -50 callsubr
          -112 hlineto
          20 230 -27 callgsubr
          endchar
        </CharString>
        <CharString name="Euro">
          13 -7 73 171 73 97 73 154 73 hstem
          476 691 rmoveto
          9 -29 -42 7 -27 hhcurveto
          -127 -67 -37 -190 -33 hvcurveto
          -45 hlineto
          -26 -73 rlineto
          60 hlineto
          -3 -30 -3 -37 -2 -30 rrcurveto
          -40 hlineto
          -27 -73 rlineto
          65 hlineto
          -194 59 -50 115 33 37 10 6 22 vhcurveto
          7 71 rlineto
          -6 -26 -31 -8 -41 hhcurveto
          -57 -31 23 132 hvcurveto
          16 114 vlineto
          27 73 rlineto
          -138 hlineto
          2 30 3 38 4 29 rrcurveto
          147 hlineto
          26 73 rlineto
          -163 hlineto
          130 23 34 24 58 hhcurveto
          33 27 -5 -8 36 hvcurveto
          endchar
        </CharString>
        <CharString name="F">
          1 21 -21 315 73 239 73 hstem
          457 627 rmoveto
          -67 callgsubr
          87 hlineto
          27 315 -68 callsubr
          21 239 rlineto
          endchar
        </CharString>
        <CharString name="G">
          38 -7 73 229 73 266 73 hstem
          452 368 rmoveto
          -172 hlineto
          1 callgsubr
          89 hlineto
          -20 -222 rlineto
          -4 -26 -30 -3 -23 hhcurveto
          -63 -33 23 135 11 6 103 1 16 hvcurveto
          242 22 43 38 85 hhcurveto
          43 44 -7 -8 42 hvcurveto
          6 72 rlineto
          6 -25 -53 10 -33 hhcurveto
          -164 -72 -35 callsubr
          -194 59 -50 123 54 51 7 10 53 vhcurveto
          endchar
        </CharString>
        <CharString name="H">
          93 21 -21 322 74 304 -20 hstem
          455 hmoveto
          61 700 -1 callsubr
          -27 -304 rlineto
          -206 hlineto
          27 304 -28 callgsubr
          87 hlineto
          28 322 rlineto
          206 hlineto
          -28 -322 rlineto
          endchar
        </CharString>
        <CharString name="I">
          -40 callgsubr
          hstem
          262 hmoveto
          -91 callsubr
          endchar
        </CharString>
        <CharString name="Iacute">
          -40 callgsubr
          141 -20 hstem
          197 -85 callgsubr
          148 -726 rmoveto
          -91 callsubr
          endchar
        </CharString>
        <CharString name="Icircumflex">
          -40 callgsubr
          145 -20 hstem
          368 -76 callsubr
          98 hlineto
          66 64 54 -64 rlineto
          -11 -730 rmoveto
          11 73 rlineto
          -75 -95 callsubr
          endchar
        </CharString>
        <CharString name="Idieresis">
          -40 callgsubr
          35 80 hstem
          262 hmoveto
          -91 callsubr
          321 -41 callsubr
          endchar
        </CharString>
        <CharString name="Igrave">
          -40 callgsubr
          141 -20 hstem
          306 -79 callsubr
          39 -726 rmoveto
          -91 callsubr
          endchar
        </CharString>
        <CharString name="J">
          -57 -7 75 559 73 hstem
          331 251 rmoveto
          40 449 rlineto
          -248 hlineto
          1 callgsubr
          161 hlineto
          -33 -383 rlineto
          -153 -13 -28 -23 -71 hhcurveto
          -16 -57 5 5 -28 -14 callsubr
          -5 32 51 -7 23 hhcurveto
          132 50 42 216 18 hvcurveto
          endchar
        </CharString>
        <CharString name="K">
          35 -46 callgsubr
          452 hmoveto
          -166 394 217 306 rlineto
          -93 hlineto
          -214 -307 27 307 -28 callgsubr
          87 hlineto
          22 261 42 60 130 -321 rlineto
          endchar
        </CharString>
        <CharString name="L">
          -47 -24 callsubr
          55 624 -28 callgsubr
          endchar
        </CharString>
        <CharString name="Lslash">
          -37 -24 callsubr
          26 295 128 59 7 80 -128 -59 22 249 -1 callsubr
          -26 -291 -62 -29 -7 -80 62 29 -28 -329 rlineto
          endchar
        </CharString>
        <CharString name="M">
          173 -46 callgsubr
          535 hmoveto
          61 -21 callgsubr
          -136 hlineto
          -124 -358 -59 358 rlineto
          -141 -64 callsubr
          80 hlineto
          54 628 73 -393 rlineto
          83 hlineto
          143 393 -54 -628 rlineto
          endchar
        </CharString>
        <CharString name="N">
          90 -46 callgsubr
          -56 callgsubr
          endchar
        </CharString>
        <CharString name="Ntilde">
          90 -55 callsubr
          51 -23 callsubr
          -56 callgsubr
          -124 734 -89 callgsubr
        </CharString>
        <CharString name="O">
          91 -45 callsubr
          hstem
          414 353 -96 callgsubr
          37 61 88 -105 callsubr
          endchar
        </CharString>
        <CharString name="OE">
          304 0 73 252 73 236 73 hstem
          696 hmoveto
          -62 callgsubr
          -275 hlineto
          37 54 18 84 12 114 rrcurveto
          205 hlineto
          -62 callgsubr
          -206 hlineto
          2 24 1 24 21 vvcurveto
          68 -9 53 -20 39 vhcurveto
          277 -26 callsubr
          -379 hlineto
          3 -16 -18 4 -19 hhcurveto
          -171 -47 -114 -235 -21 hvcurveto
          -1 -13 -4 -84 -11 vvcurveto
          -172 51 -85 131 19 18 4 3 17 vhcurveto
          92 353 rmoveto
          -215 -18 -32 -72 -90 hhcurveto
          -71 -30 46 126 33 2 38 4 44 hvcurveto
          220 20 35 61 90 hhcurveto
          69 28 -36 -117 -35 -2 -42 -5 -51 hvcurveto
          endchar
        </CharString>
        <CharString name="Oacute">
          91 -45 callsubr
          134 -20 hstem
          342 -85 callgsubr
          155 -373 -106 callgsubr
          endchar
        </CharString>
        <CharString name="Ocircumflex">
          91 -45 callsubr
          138 -20 hstem
          484 -81 callsubr
          27 -377 -106 callgsubr
          endchar
        </CharString>
        <CharString name="Odieresis">
          91 -45 callsubr
          28 80 hstem
          471 -41 callsubr
          228 -382 -106 callgsubr
          endchar
        </CharString>
        <CharString name="Ograve">
          91 -45 callsubr
          134 -20 hstem
          399 -79 callsubr
          98 -373 -106 callgsubr
          endchar
        </CharString>
        <CharString name="Omega">
          91 0 72 562 73 hstem
          223 hmoveto
          6 74 rlineto
          -43 17 -18 48 98 vvcurveto
          33 2 38 4 45 vhcurveto
          220 20 35 61 90 hhcurveto
          71 30 -37 -124 -33 -2 -40 -4 -47 hvcurveto
          -15 -177 -27 -78 -59 -23 -6 -75 rcurveline
          163 hlineto
          6 72 rlineto
          -60 hlineto
          52 50 23 90 13 146 rrcurveto
          1 15 4 76 12 vvcurveto
          166 -48 80 -136 -169 -50 -114 -235 -20 vhcurveto
          -1 -16 -5 -84 -13 vvcurveto
          -82 12 -56 31 -35 vhcurveto
          -57 hlineto
          -6 -72 rlineto
          endchar
        </CharString>
        <CharString name="Oslash">
          91 -70 -21 84 73 568 73 84 -20 hstem
          504 358 rmoveto
          3 37 2 34 32 vvcurveto
          94 -16 67 -39 40 vhcurveto
          50 129 rlineto
          -76 hlineto
          -36 -93 rlineto
          6 -20 -22 3 -25 hhcurveto
          -69 callgsubr
          hvcurveto
          -1 -14 -4 -71 -12 vvcurveto
          -106 15 -74 41 -43 vhcurveto
          -50 -129 rlineto
          75 hlineto
          36 92 rlineto
          -5 19 21 -3 25 hhcurveto
          -65 callsubr
          hvcurveto
          -336 -120 rmoveto
          13 5 85 1 17 vhcurveto
          220 20 38 61 87 hhcurveto
          17 15 -3 -5 13 hvcurveto
          -187 -484 rlineto
          -6 25 -3 31 40 vvcurveto
          246 115 -70 callgsubr
          -17 -14 2 6 -12 hvcurveto
          187 483 rlineto
          5 -22 3 -28 -34 vvcurveto
          -34 -3 -39 -4 -47 vhcurveto
          endchar
        </CharString>
        <CharString name="Otilde">
          91 -45 callsubr
          24 -23 callsubr
          414 353 -106 callgsubr
          -313 376 -89 callgsubr
        </CharString>
        <CharString name="P">
          43 21 -21 274 73 288 72 hstem
          393 488 rmoveto
          -109 -9 -24 callgsubr
          23 -34 -72 -13 -1 -13 -1 -15 vhcurveto
          92 41 rmoveto
          105 -50 73 -130 -83 -86 -16 callgsubr
          87 hlineto
          23 274 rlineto
          84 hlineto
          157 59 84 171 hvcurveto
          endchar
        </CharString>
        <CharString name="Q">
          91 -63 -21 77 73 568 73 hstem
          504 358 -102 callsubr
          vhcurveto
          222 -77 8 84 -115 22 77 50 33 111 16 175 rlinecurve
          -90 -5 -96 callgsubr
          37 61 88 -82 callgsubr
          endchar
        </CharString>
        <CharString name="R">
          63 21 -21 290 73 272 72 hstem
          482 503 rmoveto
          1 11 1 11 11 vvcurveto
          104 -48 67 -131 -83 -86 -16 callgsubr
          87 hlineto
          25 290 rlineto
          93 hlineto
          101 -290 rlineto
          94 hlineto
          -110 303 75 27 32 69 10 104 rlinecurve
          -90 -7 rmoveto
          -109 -10 -39 -24 -56 hhcurveto
          -94 hlineto
          24 266 rlineto
          0 39 6 55 61 22 -31 -70 -11 -1 -13 -1 -14 vhcurveto
          endchar
        </CharString>
        <CharString name="S">
          -23 -45 callsubr
          hstem
          390 237 -87 callgsubr
        </CharString>
        <CharString name="Scaron">
          -23 -45 callsubr
          137 -20 hstem
          142 -37 callgsubr
          151 -607 -87 callgsubr
        </CharString>
        <CharString name="T">
          -32 21 -21 624 76 hstem
          454 624 rmoveto
          7 76 rlineto
          -395 hlineto
          -7 -76 rlineto
          154 hlineto
          -54 -624 rlineto
          87 hlineto
          54 624 rlineto
          endchar
        </CharString>
        <CharString name="Thorn">
          53 21 -21 141 73 288 72 126 -20 hstem
          470 350 rmoveto
          1 12 2 24 11 vvcurveto
          104 -47 73 -132 -30 -28 -3 -1 -25 vhcurveto
          12 130 -28 callgsubr
          87 hlineto
          12 141 rlineto
          84 hlineto
          149 52 74 135 11 hvcurveto
          -88 5 rmoveto
          -109 -10 -24 callgsubr
          24 -35 -74 -12 -1 -12 -1 -14 vhcurveto
          endchar
        </CharString>
        <CharString name="U">
          -31 callsubr
          hstem
          506 700 -103 callgsubr
        </CharString>
        <CharString name="Uacute">
          -31 callsubr
          161 -20 hstem
          342 -85 callgsubr
          247 -26 -103 callgsubr
        </CharString>
        <CharString name="Ucircumflex">
          -31 callsubr
          165 -20 hstem
          479 -81 callsubr
          124 -30 -103 callgsubr
        </CharString>
        <CharString name="Udieresis">
          -31 callsubr
          55 80 hstem
          466 -41 callsubr
          325 -35 -103 callgsubr
        </CharString>
        <CharString name="Ugrave">
          -31 callsubr
          161 -20 hstem
          389 -79 callsubr
          200 -26 -103 callgsubr
        </CharString>
        <CharString name="V">
          16 -46 callgsubr
          489 700 rmoveto
          -86 hlineto
          -173 -612 -56 612 rlineto
          -88 hlineto
          76 -44 callgsubr
          119 hlineto
          endchar
        </CharString>
        <CharString name="W">
          147 -46 callgsubr
          590 700 rmoveto
          -73 hlineto
          -88 -645 -62 350 rlineto
          -82 hlineto
          -119 -350 27 645 rlineto
          -77 hlineto
          -27 -44 callgsubr
          130 hlineto
          99 304 41 -304 rlineto
          136 hlineto
          endchar
        </CharString>
        <CharString name="X">
          39 -46 callgsubr
          451 hmoveto
          -137 363 188 337 rlineto
          -95 hlineto
          -128 -243 -85 243 rlineto
          -93 hlineto
          125 -338 -201 -362 rlineto
          96 hlineto
          142 270 92 -270 rlineto
          endchar
        </CharString>
        <CharString name="Y">
          34 -46 callgsubr
          522 700 -77 callgsubr
          endchar
        </CharString>
        <CharString name="Yacute">
          34 -55 callsubr
          161 -20 hstem
          322 -85 callgsubr
          283 -26 -77 callgsubr
          endchar
        </CharString>
        <CharString name="Ydieresis">
          34 -55 callsubr
          55 80 hstem
          522 700 -77 callgsubr
          139 410 -101 callgsubr
        </CharString>
        <CharString name="Z">
          -21 0 74 552 74 hstem
          434 612 -54 callgsubr
        </CharString>
        <CharString name="Zcaron">
          -21 0 74 552 74 144 -20 hstem
          135 -37 callgsubr
          202 -232 -54 callgsubr
        </CharString>
        <CharString name="a">
          -64 callgsubr
          hstemhm
          hintmask 10100000
          -93 callsubr
          hintmask 01100000
          -107 callgsubr
          endchar
        </CharString>
        <CharString name="aacute">
          -104 callsubr
          121 515 -88 callgsubr
        </CharString>
        <CharString name="acircumflex">
          -104 callsubr
          255 515 -91 callgsubr
        </CharString>
        <CharString name="acute">
          -154 -15 callgsubr
          171 580 -88 callgsubr
        </CharString>
        <CharString name="adieresis">
          -64 callgsubr
          88 80 -105 callgsubr
          237 530 -101 callgsubr
        </CharString>
        <CharString name="ae">
          258 -7 72 144 70 -49 68 137 72 -15 callsubr
          668 370 rmoveto
          70 -39 67 -113 -55 -43 -16 -37 -33 vhcurveto
          32 -21 -40 21 -68 hhcurveto
          -49 -50 -9 -11 -38 hvcurveto
          -6 -74 rlineto
          14 51 38 8 57 hhcurveto
          46 24 -28 -36 -11 -6 -67 0 hvcurveto
          3 -26 -28 2 -25 hhcurveto
          -120 -73 -50 -126 -102 78 -27 59 78 44 27 42 28 hvcurveto
          -57 25 50 -12 64 hhcurveto
          -34 callsubr
          hvcurveto
          -75 callgsubr
          -39 20 92 hvcurveto
          36 vlineto
          hintmask 11010000
          -3 29 21 -1 26 hhcurveto
          113 82 39 122 hvcurveto
          -454 -305 rmoveto
          -49 -26 17 51 hvcurveto
          hintmask 10110000
          74 48 23 46 28 29 -2 -3 27 vhcurveto
          -9 -93 rlineto
          -22 -2 -27 -45 -65 hhcurveto
          301 371 rmoveto
          61 12 -32 -38 hvcurveto
          hintmask 11010000
          -66 -36 -21 -94 -20 -15 1 2 -21 vhcurveto
          119 14 40 35 59 hhcurveto
          endchar
        </CharString>
        <CharString name="agrave">
          -104 callsubr
          174 515 -84 callsubr
        </CharString>
        <CharString name="ampersand">
          50 -7 73 301 73 194 73 hstem
          70 158 rmoveto
          -119 56 -46 99 62 50 4 8 52 vhcurveto
          31 362 rlineto
          84 hlineto
          -62 callgsubr
          -235 hlineto
          -57 -19 37 48 96 51 13 53 30 59 -12 -3 11 hvcurveto
          -33 callgsubr
          4 -12 -45 11 -42 hhcurveto
          -103 -94 -24 -162 -38 16 -47 40 -29 hvcurveto
          -75 -21 -25 -112 -116 vvcurveto
          162 -92 rmoveto
          -46 -30 37 64 98 27 102 71 hvcurveto
          87 hlineto
          -25 -293 rlineto
          -3 -14 -29 -5 -41 hhcurveto
          endchar
        </CharString>
        <CharString name="approxequal">
          53 169 75 -36 75 56 75 -36 75 hstemhm
          hintmask 01100000
          90 172 rmoveto
          19 29 -49 callgsubr
          hintmask 01010000
          -27 callsubr
          -49 hvcurveto
          8 92 rmoveto
          19 30 -49 callgsubr
          hintmask 10010000
          -27 callsubr
          -49 hvcurveto
          endchar
        </CharString>
        <CharString name="aring">
          -64 callgsubr
          36 54 98 52 hstemhm
          hintmask 10111000
          405 -73 callsubr
          -273 -427 -93 callgsubr
          hintmask 01111000
          -107 callgsubr
          endchar
        </CharString>
        <CharString name="asciicircum">
          30 441 -21 340 -20 hstem
          468 420 rmoveto
          -109 340 rlineto
          -114 hlineto
          -174 -340 rlineto
          90 hlineto
          139 280 79 -280 rlineto
          endchar
        </CharString>
        <CharString name="asciitilde">
          53 263 75 -36 75 hstemhm
          hintmask 01000000
          98 266 rmoveto
          19 29 32 -7 callsubr
          hintmask 10000000
          56 30 -39 56 hhcurveto
          37 36 13 20 31 hvcurveto
          7 78 rlineto
          -19 -29 -32 -17 -35 hhcurveto
          hintmask 01000000
          -27 callsubr
          -48 hvcurveto
          endchar
        </CharString>
        <CharString name="asterisk">
          25 347 -21 379 -20 hstem
          457 529 rmoveto
          -25 79 -139 -53 13 150 rlineto
          -90 hlineto
          13 -150 -137 55 -27 -80 141 -30 -103 -122 69 -52 88 143 86 -142 71 50 -103 123 rlineto
          endchar
        </CharString>
        <CharString name="at">
          358 -7 71 52 65 -37 70 263 67 92 71 hstemhm
          hintmask 10111000
          486 281 rmoveto
          -29 -2 -21 -38 -61 hhcurveto
          -39 -27 13 75 150 64 25 66 14 15 -3 -2 8 hvcurveto
          252 -71 rmoveto
          2 24 1 22 21 vvcurveto
          197 -96 42 -203 -248 -82 -80 -282 -24 vhcurveto
          -3 -32 -1 -29 -27 vvcurveto
          -190 76 -74 216 49 74 7 5 35 vhcurveto
          6 71 rlineto
          -3 -28 -81 -9 -49 hhcurveto
          -171 -45 53 135 28 2 30 3 35 hvcurveto
          228 20 45 63 200 hhcurveto
          175 48 -28 -129 -23 -1 -25 -3 -30 hvcurveto
          hintmask 11011000
          -136 -12 -16 -84 -52 hhcurveto
          -22 -11 17 19 1 2 21 1 12 hvcurveto
          24 279 rlineto
          7 -30 -42 7 -29 hhcurveto
          -126 -103 -42 -204 hvcurveto
          hintmask 10111000
          -124 61 -30 58 56 45 20 27 21 vhcurveto
          hintmask 11011000
          -52 5 50 -23 33 hhcurveto
          127 27 110 175 16 hvcurveto
          endchar
        </CharString>
        <CharString name="atilde">
          -64 callgsubr
          84 70 -31 70 -15 callsubr
          -93 callsubr
          hintmask 01101000
          -107 callgsubr
          -45 529 -55 callgsubr
          hintmask 10110000
          -96 callsubr
          hintmask 10101000
          -83 callgsubr
        </CharString>
        <CharString name="b">
          42 -1 callgsubr
          193 -20 hstem
          448 282 rmoveto
          2 18 0 18 16 vvcurveto
          108 -36 65 -100 -55 -38 -22 -30 -27 vhcurveto
          22 245 -80 callsubr
          -61 -695 rlineto
          -7 42 51 -5 47 hhcurveto
          164 55 74 215 19 hvcurveto
          -154 153 rmoveto
          51 18 -34 -69 -15 0 -17 -2 -18 hvcurveto
          -139 -12 -27 -78 -95 hhcurveto
          -32 callgsubr
        </CharString>
        <CharString name="backslash">
          -22 callgsubr
          221 -110 rmoveto
          79 hlineto
          -156 920 rlineto
          -79 hlineto
          endchar
        </CharString>
        <CharString name="bar">
          -19 callsubr
          80 920 -17 callgsubr
          -80 -920 rlineto
          endchar
        </CharString>
        <CharString name="braceleft">
          -125 70 810 70 hstem
          182 -19 rmoveto
          3 2 18 1 15 vhcurveto
          17 194 rlineto
          1 9 2 18 3 vvcurveto
          64 -53 37 -43 5 vhcurveto
          47 7 62 28 7 87 21 244 rcurveline
          30 3 15 12 31 hhcurveto
          13 11 -2 -1 6 hvcurveto
          6 68 rlineto
          2 -10 -21 3 -13 hhcurveto
          -88 -24 -38 -89 -8 hvcurveto
          -18 -199 rlineto
          -83 -7 -43 -11 -39 hhcurveto
          -10 -110 rlineto
          34 40 -9 -68 -5 -2 -21 -1 -11 hvcurveto
          -14 -169 rlineto
          -1 -9 -1 -18 -7 vvcurveto
          -68 28 -35 71 13 22 3 2 10 vhcurveto
          6 68 rlineto
          -1 -6 -12 -2 -13 hhcurveto
          -29 -13 10 26 hvcurveto
          endchar
        </CharString>
        <CharString name="braceright">
          -125 70 810 70 hstem
          315 405 rmoveto
          -34 -40 10 67 7 2 19 1 11 hvcurveto
          14 159 rlineto
          1 9 2 28 7 vvcurveto
          68 -28 35 -71 -13 -23 -3 -2 -10 vhcurveto
          -6 -68 rlineto
          1 6 13 2 13 hhcurveto
          28 14 -10 -24 -3 -2 -14 -1 -15 hvcurveto
          -17 -200 rlineto
          -1 -12 -1 -16 -4 vvcurveto
          -65 53 -32 41 -7 vhcurveto
          -45 -5 -62 -33 -8 -84 -22 -244 rcurveline
          -30 -3 -13 -12 -32 hhcurveto
          -13 -12 2 1 -6 hvcurveto
          -6 -68 rlineto
          -2 10 22 -3 13 hhcurveto
          78 34 31 96 8 hvcurveto
          17 199 rlineto
          83 7 45 11 37 hhcurveto
          endchar
        </CharString>
        <CharString name="bracketleft">
          -120 75 790 75 hstem
          254 -120 rmoveto
          7 75 -22 callsubr
          69 790 rlineto
          110 hlineto
          -50 callsubr
          -190 hlineto
          -82 -940 rlineto
          endchar
        </CharString>
        <CharString name="bracketright">
          -120 75 790 75 hstem
          219 -120 rmoveto
          82 940 rlineto
          -190 -77 callsubr
          110 hlineto
          -69 -790 rlineto
          -110 -8 callgsubr
          endchar
        </CharString>
        <CharString name="breve">
          -103 595 61 69 -20 hstem
          291 725 rmoveto
          -36 -7 -14 -33 -46 hhcurveto
          -44 -10 33 36 hvcurveto
          -82 hlineto
          -55 4 30 -75 97 hhcurveto
          116 23 75 55 14 hvcurveto
          endchar
        </CharString>
        <CharString name="brokenbar">
          -19 callsubr
          31 360 -17 callgsubr
          -31 -360 rlineto
          129 560 rmoveto
          31 360 -17 callgsubr
          -31 -360 rlineto
          endchar
        </CharString>
        <CharString name="bullet">
          -167 256 -21 155 -20 hstem
          230 235 rmoveto
          14 155 rlineto
          -150 hlineto
          -14 -155 rlineto
          endchar
        </CharString>
        <CharString name="c">
          -53 -7 75 364 75 hstem
          346 85 rmoveto
          -72 callsubr
          -157 56 -29 100 36 42 8 9 32 hvcurveto
          endchar
        </CharString>
        <CharString name="caron">
          -74 600 -21 135 -20 hstem
          87 714 -66 callgsubr
        </CharString>
        <CharString name="ccedilla">
          -53 -200 63 130 75 364 75 hstem
          136 -61 callsubr
          4 20 33 2 35 7 28 8 rlinecurve
          -4 callgsubr
          -72 callsubr
          -129 37 -42 69 -11 hvcurveto
          -18 -73 -54 callsubr
        </CharString>
        <CharString name="cedilla">
          -155 -200 63 187 -20 hstem
          38 -61 callsubr
          18 77 -4 callsubr
          -31 -126 -54 callsubr
        </CharString>
        <CharString name="cent">
          13 -79 -21 94 73 533 -20 hstem
          298 -100 rmoveto
          8 95 23 3 23 5 20 6 rlinecurve
          -4 callgsubr
          -81 callgsubr
          -17 4 -24 5 -23 3 rlinecurve
          9 98 -17 callgsubr
          -9 -96 rlineto
          -111 -16 -53 -93 -217 vvcurveto
          -137 42 -40 78 -7 vhcurveto
          -8 -94 rlineto
          endchar
        </CharString>
        <CharString name="circumflex">
          -74 -15 callgsubr
          388 580 -91 callgsubr
        </CharString>
        <CharString name="colon">
          -227 0 100 300 -18 callgsubr
          134 400 -42 callsubr
          endchar
        </CharString>
        <CharString name="comma">
          -227 -119 -21 240 -20 -30 callgsubr
          endchar
        </CharString>
        <CharString name="copyright">
          343 -7 68 94 50 290 50 94 68 hstem
          491 211 rmoveto
          -3 -14 -25 -3 -23 hhcurveto
          -40 -20 9 138 133 19 10 40 20 25 -2 -4 18 hvcurveto
          48 vlineto
          3 -8 -32 5 -15 hhcurveto
          -80 -44 -27 -162 -164 39 -37 79 18 31 5 3 12 hvcurveto
          244 187 -82 callsubr
          endchar
        </CharString>
        <CharString name="currency">
          113 65 70 -67 -21 418 70 18 -20 hstemhm
          hintmask 01010000
          502 47 rmoveto
          56 56 -63 63 rlineto
          19 35 11 45 54 vvcurveto
          54 -11 44 -19 35 vhcurveto
          63 64 -56 56 -60 -59 rlineto
          hintmask 10100000
          27 -37 -48 14 -52 hhcurveto
          -53 -47 -14 -27 -38 hvcurveto
          hintmask 01010000
          -59 59 -56 -56 63 -64 rlineto
          -19 -35 -11 -44 -54 vvcurveto
          -54 11 -45 19 -35 vhcurveto
          -63 -63 56 -56 59 59 rlineto
          hintmask 10100000
          -28 38 47 -13 53 hhcurveto
          52 48 13 28 37 hvcurveto
          hintmask 01100000
          -4 194 rmoveto
          hintmask 10100000
          -108 -58 -57 -75 -75 -58 57 108 108 58 57 75 75 58 -57 -108 vhcurveto
          endchar
        </CharString>
        <CharString name="d">
          47 -7 72 -44 -21 435 72 193 -20 -15 callsubr
          74 228 rmoveto
          -2 -19 0 -18 -17 vvcurveto
          -120 41 -61 91 62 43 29 38 30 vhcurveto
          hintmask 01110000
          5 -60 -28 callsubr
          61 700 -80 callsubr
          -18 -198 rlineto
          3 -17 -19 2 -19 hhcurveto
          -161 -64 -45 callgsubr
          hintmask 10110000
          -44 callsubr
          -2 15 hvcurveto
          -21 -232 rlineto
          -59 -5 -37 -75 -77 hhcurveto
          endchar
        </CharString>
        <CharString name="dagger">
          -6 21 -21 425 -3 callsubr
          37 425 -52 callsubr
          -37 -425 rlineto
          endchar
        </CharString>
        <CharString name="daggerdbl">
          -6 21 -21 210 75 140 -3 callsubr
          18 210 rlineto
          140 hlineto
          -50 callsubr
          -139 hlineto
          12 140 -52 callsubr
          -12 -140 rlineto
          -142 -77 callsubr
          141 hlineto
          -18 -210 rlineto
          endchar
        </CharString>
        <CharString name="degree">
          -94 392 64 187 62 hstem
          298 567 rmoveto
          -50 -1 -19 -61 -68 hhcurveto
          -54 -16 40 41 49 20 57 67 55 16 -36 -40 hvcurveto
          74 4 rmoveto
          77 -39 57 -101 -118 -47 -80 -96 -76 39 -61 99 119 48 84 95 vhcurveto
          endchar
        </CharString>
        <CharString name="dieresis">
          -102 595 80 hstem
          362 595 -101 callgsubr
        </CharString>
        <CharString name="divide">
          93 65 100 110 75 110 100 hstem
          cntrmask 11100000
          479 275 -75 callsubr
          221 -210 -42 callsubr
          135 395 rmoveto
          -67 callsubr
          rlineto
          endchar
        </CharString>
        <CharString name="dollar">
          13 -109 -21 125 73 534 73 105 -20 hstem
          255 -130 rmoveto
          11 132 73 16 43 47 12 129 rlinecurve
          1 12 1 11 11 vvcurveto
          100 -46 47 -85 18 vhcurveto
          -45 10 -16 26 49 vvcurveto
          96 40 28 57 35 37 -7 -8 33 vhcurveto
          6 73 -26 7 -26 7 -34 1 rlinecurve
          9 105 -80 callsubr
          -10 -113 rlineto
          -75 -18 -51 -52 -125 vvcurveto
          -85 49 -60 82 -17 vhcurveto
          39 -8 22 -24 -65 vvcurveto
          -95 -26 -50 -75 -46 -38 7 8 -30 vhcurveto
          -7 -73 31 -9 32 -5 34 -1 rlinecurve
          -11 -125 rlineto
          endchar
        </CharString>
        <CharString name="dotaccent">
          -293 615 85 hstem
          163 615 rmoveto
          8 85 -80 callsubr
          -8 -85 rlineto
          endchar
        </CharString>
        <CharString name="dotlessi">
          -39 callgsubr
          -76 callgsubr
          endchar
        </CharString>
        <CharString name="dotmath">
          -87 callsubr
        </CharString>
        <CharString name="e">
          -53 callsubr
          -107 callsubr
          endchar
        </CharString>
        <CharString name="eacute">
          -100 callgsubr
          35 144 -88 callgsubr
        </CharString>
        <CharString name="ecircumflex">
          -100 callgsubr
          171 144 -91 callgsubr
        </CharString>
        <CharString name="edieresis">
          -53 callsubr
          88 80 -107 callsubr
          161 159 -101 callgsubr
        </CharString>
        <CharString name="egrave">
          -100 callgsubr
          86 144 -84 callsubr
        </CharString>
        <CharString name="eight">
          29 -7 72 270 61 239 72 hstem
          349 233 rmoveto
          -104 -19 -64 -97 -62 -31 23 73 111 25 33 58 30 vhcurveto
          101 25 -29 -73 hvcurveto
          16 315 rmoveto
          -62 -16 -68 -58 -22 vhcurveto
          -84 -26 27 67 96 27 49 75 59 23 -29 -58 hvcurveto
          69 -318 rmoveto
          68 -22 59 -56 13 vhcurveto
          77 34 15 60 85 vvcurveto
          121 -70 37 -89 -110 -82 -48 -165 -57 20 -54 41 -21 vhcurveto
          -51 -22 -52 -41 -138 vvcurveto
          -114 54 -54 118 152 55 85 152 vhcurveto
          endchar
        </CharString>
        <CharString name="ellipsis">
          213 0 -18 callgsubr
          320 -71 callgsubr
          320 -71 callgsubr
          endchar
        </CharString>
        <CharString name="emdash">
          148 275 75 hstem
          554 -31 callgsubr
          -475 -36 callsubr
        </CharString>
        <CharString name="endash">
          -36 callgsubr
        </CharString>
        <CharString name="equal">
          93 175 75 125 75 hstem
          470 175 -75 callsubr
          397 200 rmoveto
          -4 callgsubr
          -380 -8 callgsubr
          endchar
        </CharString>
        <CharString name="eth">
          46 -7 72 327 72 173 70 43 -20 hstem
          315 614 rmoveto
          37 -21 17 -41 -86 vvcurveto
          -4 0 -13 -1 -16 vhcurveto
          14 -22 -36 17 -49 hhcurveto
          -147 -24 -100 -144 -12 hvcurveto
          -1 -15 -1 -14 -13 vvcurveto
          -134 67 -51 91 148 41 66 330 28 vhcurveto
          1 10 3 58 8 vvcurveto
          125 -35 58 -63 29 vhcurveto
          49 73 rlineto
          -82 hlineto
          -36 -53 -36 6 -42 2 -46 2 rlinecurve
          -6 -70 33 -2 29 -1 25 -2 rlinecurve
          -51 -76 rlineto
          82 hlineto
          -14 -164 rmoveto
          52 37 -21 -7 12 hvcurveto
          -262 -24 -33 -37 -60 hhcurveto
          -65 -21 38 68 12 1 14 1 14 hvcurveto
          112 10 18 69 72 hhcurveto
          endchar
        </CharString>
        <CharString name="exclam">
          -207 0 100 600 -20 hstem
          165 -71 callgsubr
          110 208 rmoveto
          43 492 -80 callsubr
          -43 -492 rlineto
          endchar
        </CharString>
        <CharString name="exclamdown">
          -207 -179 -21 600 100 hstem
          108 -21 callsubr
          -9 -100 rlineto
          100 hlineto
          9 100 rlineto
          -110 -208 rmoveto
          -43 -492 0 callgsubr
          43 492 rlineto
          endchar
        </CharString>
        <CharString name="f">
          -94 callsubr
        </CharString>
        <CharString name="fi">
          53 -175 72 124 -21 427 73 137 70 hstem
          420 hmoveto
          43 500 rlineto
          -255 hlineto
          6 65 rlineto
          45 4 15 27 82 hhcurveto
          36 54 -6 -14 47 hvcurveto
          7 70 rlineto
          12 -52 -56 8 -43 -78 callgsubr
          169 hlineto
          -36 -427 rlineto
          endchar
        </CharString>
        <CharString name="five">
          -57 -177 73 278 73 195 73 hstem
          361 442 rmoveto
          -33 callgsubr
          -265 hlineto
          -30 -341 rlineto
          110 hlineto
          55 23 -20 -75 -115 -24 -68 -69 -55 -55 12 4 -18 -14 callsubr
          -6 29 43 -10 51 hhcurveto
          116 75 43 222 102 -39 57 -125 hvcurveto
          -20 hlineto
          17 195 rlineto
          endchar
        </CharString>
        <CharString name="fl">
          68 -175 72 100 73 357 73 138 69 -7 -20 hstemhm
          hintmask 11101000
          486 -58 callsubr
          49 563 -80 callsubr
          hintmask 11110000
          3 -21 -34 4 -33 -78 callgsubr
          94 hlineto
          -62 callgsubr
          -94 hlineto
          6 65 rlineto
          45 4 15 28 82 hhcurveto
          20 27 -2 -4 28 hvcurveto
          -45 -510 -59 callsubr
        </CharString>
        <CharString name="florin">
          -94 callsubr
        </CharString>
        <CharString name="four">
          -24 -149 -21 170 73 442 -20 hstem
          393 hmoveto
          -62 callgsubr
          -70 hlineto
          17 199 rlineto
          -83 hlineto
          -17 -199 rlineto
          -117 hlineto
          136 442 rlineto
          -81 hlineto
          -137 -431 -7 -84 rlineto
          200 hlineto
          -15 -170 rlineto
          83 hlineto
          15 170 rlineto
          endchar
        </CharString>
        <CharString name="fraction">
          -42 callgsubr
        </CharString>
        <CharString name="g">
          47 -187 73 117 72 360 72 hstem
          74 233 rmoveto
          -2 -20 0 -18 -17 vvcurveto
          -119 40 -56 92 59 41 23 33 29 vhcurveto
          -3 -39 rlineto
          -117 -9 -33 -17 -65 hhcurveto
          -36 -53 9 6 -29 hvcurveto
          -7 -74 rlineto
          -7 33 51 -7 30 hhcurveto
          132 54 23 204 18 hvcurveto
          40 445 rlineto
          11 -40 -48 11 -51 hhcurveto
          -157 -68 -77 -197 -18 hvcurveto
          152 -158 rmoveto
          -48 -19 32 69 14 1 16 1 17 hvcurveto
          139 13 32 73 94 hhcurveto
          30 21 -3 -2 15 hvcurveto
          -20 -227 rlineto
          -56 -5 -36 -72 -79 hhcurveto
          endchar
        </CharString>
        <CharString name="germandbls">
          62 -7 72 -44 -21 635 72 hstemhm
          hintmask 01100000
          463 175 rmoveto
          83 -57 43 -60 25 vhcurveto
          -17 7 -13 19 17 vvcurveto
          45 29 18 81 vhcurveto
          16 55 12 28 59 vvcurveto
          77 -53 56 -99 -115 -61 -63 -111 -10 vhcurveto
          -46 -533 0 callgsubr
          47 540 rlineto
          65 6 36 30 50 hhcurveto
          62 24 -33 -34 -28 -7 -25 -8 -19 hvcurveto
          -76 -12 -54 -33 -91 vvcurveto
          -50 22 -30 50 -24 vhcurveto
          50 -23 17 -23 -44 vvcurveto
          hintmask 10100000
          -50 -20 -51 -66 -23 -29 5 6 -22 vhcurveto
          -6 -73 rlineto
          -5 18 40 -5 13 hhcurveto
          126 58 57 125 hvcurveto
          endchar
        </CharString>
        <CharString name="grave">
          -154 -15 callgsubr
          300 580 -84 callsubr
        </CharString>
        <CharString name="greater">
          93 126 -21 459 -13 callsubr
          179 -8 -90 304 -136 -328 -137 -8 -96 rlineto
          endchar
        </CharString>
        <CharString name="greaterequal">
          93 0 75 490 -13 callsubr
          180 -8 -92 296 -136 -318 -117 -9 -95 rlineto
          370 -125 -75 callsubr
          endchar
        </CharString>
        <CharString name="guillemotleft">
          8 -29 callsubr
          228 92 rmoveto
          -45 -51 callsubr
          226 hmoveto
          -45 -51 callsubr
          endchar
        </CharString>
        <CharString name="guillemotright">
          8 -29 callsubr
          299 92 rmoveto
          -53 callgsubr
          -93 hmoveto
          -53 callgsubr
          endchar
        </CharString>
        <CharString name="guilsinglleft">
          -152 -29 callsubr
          227 92 rmoveto
          -44 -51 callsubr
          endchar
        </CharString>
        <CharString name="guilsinglright">
          -152 -29 callsubr
          139 92 rmoveto
          -53 callgsubr
          endchar
        </CharString>
        <CharString name="h">
          49 -11 callsubr
          193 -20 hstem
          155 hmoveto
          26 296 rlineto
          62 6 30 -84 callgsubr
          -54 -37 -20 -32 -28 vhcurveto
          21 245 rlineto
          -85 -64 callsubr
          endchar
        </CharString>
        <CharString name="hungarumlaut">
          6 619 -21 147 -20 hstem
          313 745 -13 callgsubr
          330 147 -13 callgsubr
          endchar
        </CharString>
        <CharString name="hyphen">
          -37 callsubr
        </CharString>
        <CharString name="i">
          -39 callgsubr
          130 90 hstem
          213 -47 callsubr
          rlineto
          37 -610 rmoveto
          -74 callsubr
          -43 -500 rlineto
          endchar
        </CharString>
        <CharString name="iacute">
          -72 callgsubr
          111 580 -88 callgsubr
        </CharString>
        <CharString name="icircumflex">
          -72 callgsubr
          249 580 -91 callgsubr
        </CharString>
        <CharString name="idieresis">
          -39 callgsubr
          115 80 -76 callgsubr
          237 595 -101 callgsubr
        </CharString>
        <CharString name="igrave">
          -72 callgsubr
          159 580 -84 callsubr
        </CharString>
        <CharString name="infinity">
          273 166 73 182 73 hstem
          249 421 rmoveto
          47 38 -23 -39 12 hvcurveto
          -87 -7 -28 -33 -78 hhcurveto
          -57 -32 20 56 78 40 28 65 hvcurveto
          130 -176 rmoveto
          -62 30 48 -17 49 hhcurveto
          140 57 69 115 91 -59 53 -109 -78 -45 -31 -48 -27 hvcurveto
          62 -30 -50 17 -48 hhcurveto
          -138 -58 -69 -115 -91 59 -53 108 73 51 31 48 27 hvcurveto
          136 -6 rmoveto
          -47 -37 23 39 -13 hvcurveto
          87 8 27 33 78 hhcurveto
          58 31 -21 -56 -78 -41 -27 -64 hvcurveto
          endchar
        </CharString>
        <CharString name="integral">
          -240 72 921 72 hstem
          -50 -230 rmoveto
          -4 20 31 -6 42 hhcurveto
          75 55 31 96 8 hvcurveto
          71 818 rlineto
          29 3 22 19 34 hhcurveto
          36 24 -4 -5 21 hvcurveto
          6 71 rlineto
          4 -20 -30 6 -43 hhcurveto
          -86 -44 -41 -86 -8 hvcurveto
          -72 -818 rlineto
          -29 -2 -20 -19 -37 hhcurveto
          -35 -24 4 5 -20 hvcurveto
          endchar
        </CharString>
        <CharString name="j">
          -212 -175 72 603 -20 130 90 hstem
          198 -21 callsubr
          -85 hlineto
          -48 -548 -85 callsubr
          28 -2 31 hhcurveto
          92 37 57 75 7 hvcurveto
          62 653 -34 callgsubr
          rlineto
          endchar
        </CharString>
        <CharString name="k">
          7 -46 callsubr
          220 -20 hstem
          419 hmoveto
          -150 307 186 193 rlineto
          -109 hlineto
          -163 -172 33 372 rlineto
          -85 -64 callsubr
          85 hlineto
          18 214 33 34 116 -248 rlineto
          endchar
        </CharString>
        <CharString name="l">
          -187 -3 73 630 -20 hstem
          221 -58 callsubr
          49 563 -80 callsubr
          -51 -578 -59 callsubr
        </CharString>
        <CharString name="less">
          93 126 -21 459 -20 hstem
          464 105 rmoveto
          8 92 -298 137 322 136 8 94 -396 -179 -9 -105 rlineto
          endchar
        </CharString>
        <CharString name="lessequal">
          93 0 75 489 -20 hstem
          465 125 rmoveto
          9 93 -298 117 320 136 8 93 -396 -179 -9 -105 rlineto
          356 -280 -75 callsubr
          endchar
        </CharString>
        <CharString name="logicaland">
          -87 callsubr
        </CharString>
        <CharString name="logicalnot">
          148 127 -21 169 75 hstem
          539 106 rmoveto
          21 244 rlineto
          -475 -77 callsubr
          389 hlineto
          -14 -169 rlineto
          endchar
        </CharString>
        <CharString name="lozenge">
          13 -46 callgsubr
          450 350 rmoveto
          -109 350 -22 callsubr
          -171 -350 108 -350 rlineto
          112 hlineto
          85 350 rmoveto
          -136 -280 -84 280 137 280 rlineto
          endchar
        </CharString>
        <CharString name="lslash">
          -177 -3 73 630 -20 hstem
          231 -58 callsubr
          22 252 68 41 7 80 -68 -42 20 232 -80 callsubr
          -25 -287 -58 -35 -7 -78 58 35 -19 -213 -59 callsubr
        </CharString>
        <CharString name="m">
          273 -11 callsubr
          hstem
          155 hmoveto
          25 296 rlineto
          61 5 22 78 75 -30 callsubr
          25 299 rlineto
          60 5 22 76 74 -30 callsubr
          26 310 rlineto
          2 22 1 20 15 vvcurveto
          88 -28 52 -98 -64 -38 -25 -42 -27 vhcurveto
          43 -15 -35 24 -66 hhcurveto
          -57 -36 -23 -38 -27 hvcurveto
          -1 54 -29 callgsubr
          endchar
        </CharString>
        <CharString name="macron">
          -35 callgsubr
        </CharString>
        <CharString name="minus">
          -36 callgsubr
        </CharString>
        <CharString name="mu">
          -90 callgsubr
        </CharString>
        <CharString name="multiply">
          93 158 -21 346 -20 hstem
          410 137 rmoveto
          56 56 -116 117 116 117 -56 56 -117 -116 -117 116 -56 -56 116 -117 -116 -117 56 -56 117 116 rlineto
          endchar
        </CharString>
        <CharString name="n">
          49 -11 callsubr
          hstem
          -73 callgsubr
          -1 58 -29 callgsubr
          endchar
        </CharString>
        <CharString name="nine">
          -4 -177 72 181 72 302 72 hstem
          58 300 rmoveto
          -2 -22 -1 -20 -19 vvcurveto
          -102 31 -61 109 49 37 17 13 22 vhcurveto
          -191 -21 -30 -20 -70 hhcurveto
          -43 -36 10 6 -25 hvcurveto
          1 callgsubr
          -5 17 47 -10 31 hhcurveto
          139 63 42 275 24 hvcurveto
          6 65 2 54 45 vvcurveto
          187 -48 31 -102 -95 -81 -41 -181 -16 vhcurveto
          150 -152 rmoveto
          -53 -15 27 60 141 28 74 76 49 25 -15 -117 -37 -3 -47 -5 -59 hvcurveto
          -7 -12 -39 -20 -51 hhcurveto
          endchar
        </CharString>
        <CharString name="notequal">
          93 91 -21 105 75 125 75 105 -20 hstem
          487 375 rmoveto
          7 75 -4 callsubr
          74 105 -17 callgsubr
          -74 -105 rlineto
          -235 -8 callgsubr
          189 hlineto
          -88 -125 rlineto
          -112 -77 callsubr
          65 hlineto
          -74 -105 -17 callsubr
          74 105 rlineto
          235 hlineto
          -50 callsubr
          -188 hlineto
          88 125 rlineto
          endchar
        </CharString>
        <CharString name="ntilde">
          49 -11 callsubr
          -7 -20 111 -23 callsubr
          -73 callgsubr
          hintmask 10101000
          -1 58 -29 callgsubr
          105 594 -55 callgsubr
          hintmask 11010000
          -96 callsubr
          hintmask 11001000
          -83 callgsubr
        </CharString>
        <CharString name="numbersign">
          13 21 -21 180 75 200 75 170 -20 hstem
          287 255 rmoveto
          -80 hlineto
          17 200 -17 callsubr
          126 -275 rmoveto
          -4 callgsubr
          -70 hlineto
          17 200 -28 callsubr
          -4 callgsubr
          -70 hlineto
          15 170 -17 callgsubr
          -15 -170 -17 callgsubr
          15 170 -17 callgsubr
          -15 -170 rlineto
          -70 -8 callgsubr
          70 hlineto
          -17 -200 rlineto
          -70 -8 callgsubr
          70 hlineto
          -15 -180 -17 callsubr
          15 180 -17 callsubr
          -15 -180 -17 callsubr
          15 180 rlineto
          endchar
        </CharString>
        <CharString name="o">
          -39 callsubr
          hstem
          -106 callsubr
          endchar
        </CharString>
        <CharString name="oacute">
          -99 callsubr
          -56 335 -88 callgsubr
        </CharString>
        <CharString name="ocircumflex">
          -99 callsubr
          83 335 -91 callgsubr
        </CharString>
        <CharString name="odieresis">
          -39 callsubr
          88 80 hstem
          -106 callsubr
          71 350 -101 callgsubr
        </CharString>
        <CharString name="oe">
          291 -7 72 139 70 163 70 hstem
          718 -56 callsubr
          -60 -47 -19 -46 -33 vhcurveto
          41 -26 -45 24 -66 hhcurveto
          -147 -68 -96 -214 -159 65 -45 105 63 51 17 42 35 hvcurveto
          -48 27 47 -11 60 hhcurveto
          -34 callsubr
          hvcurveto
          -97 callgsubr
          -349 -125 -103 callsubr
          196 191 -94 callgsubr
          endchar
        </CharString>
        <CharString name="ogonek">
          -139 -180 68 172 -20 hstem
          232 -105 rmoveto
          -3 -18 -31 -4 -15 hhcurveto
          -27 -14 6 28 30 23 64 33 44 hvcurveto
          -69 hlineto
          -35 -35 -32 -60 -58 vvcurveto
          -65 30 -22 76 24 31 5 5 20 vhcurveto
          endchar
        </CharString>
        <CharString name="ograve">
          -99 callsubr
          5 335 -84 callsubr
        </CharString>
        <CharString name="one">
          -47 0 75 440 -20 hstem
          355 hmoveto
          -50 callsubr
          -99 hlineto
          39 440 rlineto
          -95 hlineto
          -126 -50 -7 -81 136 53 -32 -362 rlineto
          -121 -36 callsubr
        </CharString>
        <CharString name="onehalf">
          418 -79 -21 100 65 140 66 165 64 200 -62 callsubr
          712 -205 -79 callgsubr
          154 810 -66 callsubr
        </CharString>
        <CharString name="onequarter">
          -10 callsubr
          24 66 429 -62 callsubr
          704 -88 -69 callsubr
          -39 693 -66 callsubr
        </CharString>
        <CharString name="onesuperior">
          -47 205 66 429 -20 hstem
          336 -80 callgsubr
          endchar
        </CharString>
        <CharString name="ordfeminine">
          -62 -6 callsubr
          90 497 rmoveto
          -1 -16 -1 -14 -14 vvcurveto
          -88 29 -44 72 48 29 19 27 19 vhcurveto
          -28 10 24 -13 33 hhcurveto
          15 hlineto
          4 53 rlineto
          -19 -10 10 18 hvcurveto
          2 0 1 2 vvcurveto
          24 278 rlineto
          8 -23 -45 9 -28 hhcurveto
          -113 -53 -62 -148 -14 hvcurveto
          115 -118 rmoveto
          -35 -12 16 51 138 34 65 66 15 11 -1 -1 9 hvcurveto
          -17 -194 rlineto
          -38 -3 -23 -36 -45 hhcurveto
          103 -379 -60 callsubr
          -251 -36 callsubr
        </CharString>
        <CharString name="ordmasculine">
          -41 -6 callsubr
          313 508 rmoveto
          -88 -8 -13 -41 -61 hhcurveto
          -48 -15 26 54 116 20 74 66 48 14 -33 -56 -16 -1 -17 -2 -19 hvcurveto
          75 50 rmoveto
          102 -45 47 -84 -115 -46 -73 -160 -119 49 -34 79 102 44 40 151 13 vhcurveto
          1 13 2 22 11 vvcurveto
          -54 -558 -60 callsubr
          -276 -36 callsubr
        </CharString>
        <CharString name="oslash">
          53 -68 -21 82 70 374 70 82 -20 hstem
          -2 callsubr
          74 -20 53 -39 31 vhcurveto
          48 -8 callsubr
          -77 hlineto
          -36 -87 rlineto
          3 -14 -16 2 -16 0 callsubr
          -64 -96 -215 -91 21 -53 38 -29 hvcurveto
          -47 -112 rlineto
          78 hlineto
          35 85 rlineto
          -2 14 15 -1 16 hhcurveto
          151 64 101 222 hvcurveto
          -299 -126 rmoveto
          17 1 18 2 20 vhcurveto
          142 12 28 50 80 hhcurveto
          8 8 -1 -1 7 hvcurveto
          -135 -322 rlineto
          -8 20 -3 25 32 vvcurveto
          209 55 -70 callsubr
          -8 -7 0 1 -7 hvcurveto
          135 322 rlineto
          6 -18 3 -24 -30 vvcurveto
          -20 -1 -23 -2 -26 vhcurveto
          endchar
        </CharString>
        <CharString name="otilde">
          -39 callsubr
          84 -23 callsubr
          -106 callsubr
          -208 349 -89 callgsubr
        </CharString>
        <CharString name="p">
          42 -26 callgsubr
          -59 callgsubr
          -61 -40 -27 -36 -28 vhcurveto
          -2 56 rlineto
          -70 hlineto
          -58 -670 -25 callsubr
          -31 -21 1 2 -15 hvcurveto
          18 208 rlineto
          58 5 22 101 89 hhcurveto
          endchar
        </CharString>
        <CharString name="paragraph">
          53 -175 72 124 -21 374 70 192 71 -7 -20 hstemhm
          hintmask 11101000
          491 700 rmoveto
          -80 hlineto
          -66 -748 rlineto
          -35 -4 -22 -83 callsubr
          28 -2 31 hhcurveto
          90 33 57 75 9 hvcurveto
          -92 487 rmoveto
          -101 hlineto
          -43 -22 30 37 hvcurveto
          hintmask 11110000
          93 29 32 84 20 25 -3 -3 27 vhcurveto
          hintmask 11101000
          6 70 rlineto
          hintmask 11110000
          0 -50 7 -54 -82 -81 -54 -139 -116 63 -24 67 vhcurveto
          24 hlineto
          -32 -374 rlineto
          82 hlineto
          endchar
        </CharString>
        <CharString name="parenleft">
          -2 callgsubr
          71 248 rmoveto
          -130 23 -131 62 -107 vhcurveto
          83 hlineto
          -57 113 -27 110 138 vvcurveto
          217 52 202 114 160 vhcurveto
          -83 hlineto
          -119 -147 -48 -212 -213 vvcurveto
          endchar
        </CharString>
        <CharString name="parenright">
          -2 callgsubr
          290 452 rmoveto
          129 -23 132 -63 107 vhcurveto
          -83 hlineto
          57 -113 27 -110 -138 vvcurveto
          -217 -52 -202 -114 -160 vhcurveto
          83 hlineto
          118 144 50 200 228 vvcurveto
          endchar
        </CharString>
        <CharString name="partialdiff">
          13 -5 callgsubr
          68 213 rmoveto
          -1 -14 -1 -14 -12 vvcurveto
          -137 73 -43 82 137 45 58 333 29 vhcurveto
          3 35 2 32 28 vvcurveto
          191 -69 37 -116 -31 -49 -10 -5 -17 vhcurveto
          -6 -71 rlineto
          6 26 38 10 43 hhcurveto
          63 33 -19 -129 -22 -1 -25 -2 -29 hvcurveto
          14 -20 -34 17 -49 hhcurveto
          -139 -27 -93 -138 -12 hvcurveto
          179 159 rmoveto
          50 35 -20 -7 11 hvcurveto
          -245 -22 -29 -35 -59 hhcurveto
          -59 -23 34 68 12 1 13 1 14 hvcurveto
          112 9 13 54 72 hhcurveto
          endchar
        </CharString>
        <CharString name="percent">
          399 -7 59 -31 -21 285 59 12 59 233 59 -7 -20 hstemhm
          hintmask 10111000
          323 496 -48 callgsubr
          69 4 rmoveto
          -98 callgsubr
          hintmask 01110100
          249 200 rmoveto
          -78 hlineto
          -306 -44 callgsubr
          78 hlineto
          375 204 rmoveto
          hintmask 10111000
          -92 callsubr
          69 4 rmoveto
          -98 callgsubr
          endchar
        </CharString>
        <CharString name="period">
          -227 0 -18 callgsubr
          endchar
        </CharString>
        <CharString name="periodcentered">
          -227 260 100 hstem
          177 260 -42 callsubr
          endchar
        </CharString>
        <CharString name="perthousand">
          721 -7 59 233 59 12 59 233 59 hstem
          323 496 -48 callgsubr
          318 204 rmoveto
          -78 hlineto
          -306 -44 callgsubr
          78 hlineto
          375 204 -48 callgsubr
          322 hmoveto
          -92 callsubr
          -640 296 rmoveto
          -98 callgsubr
          387 -292 rmoveto
          -98 callgsubr
          322 hmoveto
          -98 callgsubr
          endchar
        </CharString>
        <CharString name="pi">
          97 0 70 -51 -21 429 73 hstemhm
          hintmask 10100000
          536 427 rmoveto
          -62 callgsubr
          -464 -38 callsubr
          78 hlineto
          -36 -427 0 callgsubr
          36 427 rlineto
          125 hlineto
          -27 -315 rlineto
          -1 -7 0 -7 -6 vvcurveto
          hintmask 01100000
          -73 40 -21 -51 callgsubr
          26 310 rlineto
          endchar
        </CharString>
        <CharString name="plus">
          93 139 -21 157 -49 callsubr
          -151 -77 callsubr
          151 hlineto
          -14 -157 -17 callsubr
          14 157 rlineto
          endchar
        </CharString>
        <CharString name="plusminus">
          93 0 75 200 -49 callsubr
          -150 -77 callsubr
          150 hlineto
          -12 -132 -17 callsubr
          12 132 rlineto
          126 -275 -75 callsubr
          endchar
        </CharString>
        <CharString name="product">
          107 0 70 -51 -21 627 75 hstemhm
          hintmask 10100000
          563 625 rmoveto
          -4 callgsubr
          -474 -8 callgsubr
          79 hlineto
          -54 -625 rlineto
          87 hlineto
          54 625 rlineto
          131 hlineto
          -45 -513 rlineto
          -6 -1 -5 -6 vvcurveto
          hintmask 01100000
          -71 42 -26 -51 callgsubr
          44 508 rlineto
          endchar
        </CharString>
        <CharString name="q">
          47 -26 callgsubr
          hstem
          74 228 rmoveto
          -2 -20 -1 -19 -18 vvcurveto
          -118 39 -60 94 59 41 25 35 29 vhcurveto
          -19 -223 0 callgsubr
          57 655 rlineto
          10 -31 -55 12 -53 hhcurveto
          -159 -66 -45 callgsubr
          -44 callsubr
          -3 15 hvcurveto
          -20 -227 rlineto
          -59 -9 -32 -79 -79 hhcurveto
          endchar
        </CharString>
        <CharString name="question">
          -97 0 100 534 73 hstem
          194 -71 callgsubr
          267 530 rmoveto
          1 10 1 19 8 vvcurveto
          108 -63 32 -102 -36 -51 -9 -6 -26 vhcurveto
          -6 -74 rlineto
          6 31 51 10 41 hhcurveto
          47 30 -17 -55 -74 -11 -9 -73 -79 hvcurveto
          -66 -71 -10 -121 0 callgsubr
          7 92 61 64 75 78 8 25 6 63 rlinecurve
          endchar
        </CharString>
        <CharString name="questiondown">
          -97 -207 74 533 100 hstem
          189 -21 callsubr
          -8 -100 rlineto
          100 hlineto
          8 100 rlineto
          -268 -529 rmoveto
          -7 -1 -10 -9 vvcurveto
          -117 56 -35 108 38 49 10 6 28 vhcurveto
          -62 callgsubr
          -5 -33 -49 -10 -41 hhcurveto
          -51 -27 18 59 hvcurveto
          1 69 12 13 71 75 66 70 rcurveline
          10 121 -80 callsubr
          -7 -92 -61 -63 -75 -78 -6 -26 -9 -62 rlinecurve
          endchar
        </CharString>
        <CharString name="quotedbl">
          -97 -43 callgsubr
          189 157 -34 callgsubr
          6 -10 callgsubr
          55 hlineto
          endchar
        </CharString>
        <CharString name="quotedblbase">
          -97 -136 -41 callgsubr
          295 hmoveto
          -19 callgsubr
          -81 157 rmoveto
          -23 callgsubr
        </CharString>
        <CharString name="quotedblleft">
          -97 -43 callsubr
          81 -157 -47 callgsubr
          endchar
        </CharString>
        <CharString name="quotedblright">
          -97 474 -41 callgsubr
          348 610 rmoveto
          8 90 rlineto
          -95 hlineto
          -8 -12 callsubr
          8 -38 callgsubr
          -8 -90 -44 -10 callgsubr
          65 hlineto
          endchar
        </CharString>
        <CharString name="quoteleft">
          -252 -43 callsubr
          endchar
        </CharString>
        <CharString name="quoteright">
          -252 -60 callgsubr
          -44 -10 callgsubr
          65 hlineto
          endchar
        </CharString>
        <CharString name="quotesinglbase">
          -252 -136 -41 callgsubr
          140 hmoveto
          -23 callgsubr
        </CharString>
        <CharString name="quotesingle">
          -252 -43 callgsubr
          endchar
        </CharString>
        <CharString name="r">
          -119 21 -21 422 85 hstem
          346 501 rmoveto
          3 -14 -14 3 -24 hhcurveto
          -48 -35 -29 -40 -26 hvcurveto
          -2 62 -29 callgsubr
          85 hlineto
          24 276 rlineto
          67 6 27 79 67 hhcurveto
          19 24 -4 -4 17 hvcurveto
          endchar
        </CharString>
        <CharString name="radical">
          98 21 -21 745 75 hstem
          625 745 -60 callsubr
          -177 hlineto
          -243 -759 -63 331 rlineto
          -89 hlineto
          85 -392 rlineto
          128 hlineto
          240 745 rlineto
          endchar
        </CharString>
        <CharString name="registered">
          343 -7 68 255 48 137 46 92 68 hstem
          735 350 -82 callsubr
          -128 85 rmoveto
          67 -26 45 -84 -46 -44 -3 0 vhcurveto
          -385 54 157 38 vlineto
          67 -10 callgsubr
          61 hlineto
          -75 165 rlineto
          38 16 17 39 56 vvcurveto
          -55 -4 rmoveto
          -60 -18 -7 -30 vhcurveto
          -43 135 hlineto
          0 12 2 31 39 9 -17 -53 vhcurveto
          endchar
        </CharString>
        <CharString name="ring">
          -197 543 54 98 52 hstem
          271 -73 callsubr
          endchar
        </CharString>
        <CharString name="s">
          -55 -1 callgsubr
          -89 callsubr
          endchar
        </CharString>
        <CharString name="scaron">
          -55 -1 callgsubr
          207 -20 -89 callsubr
          -248 549 -66 callgsubr
        </CharString>
        <CharString name="section">
          13 -7 71 572 71 hstem
          102 328 rmoveto
          -65 34 -41 94 -16 vhcurveto
          39 -6 19 -22 -34 vvcurveto
          -43 -35 -37 -49 -54 -26 9 9 -33 vhcurveto
          1 callgsubr
          -5 20 34 -11 52 hhcurveto
          111 71 43 115 34 -12 34 -29 19 hvcurveto
          42 24 35 41 65 vvcurveto
          58 -33 53 -94 15 vhcurveto
          -40 7 -18 20 34 vvcurveto
          30 17 51 66 54 26 -9 -9 34 vhcurveto
          6 72 rlineto
          5 -20 -34 12 -52 hhcurveto
          -102 -79 -41 -117 -32 12 -38 25 -18 hvcurveto
          -45 -24 -29 -50 -59 vvcurveto
          220 36 rmoveto
          -2 1 -3 -2 vvcurveto
          -37 -35 -42 -24 -10 vhcurveto
          -62 10 -14 22 35 vvcurveto
          42 23 45 31 11 vhcurveto
          65 -11 15 -23 -35 vvcurveto
          endchar
        </CharString>
        <CharString name="semicolon">
          -227 -119 -21 540 100 -30 callgsubr
          119 540 -42 callsubr
          endchar
        </CharString>
        <CharString name="seven">
          -82 -149 -21 610 75 hstem
          352 418 rmoveto
          9 97 rlineto
          -305 -8 callgsubr
          223 hlineto
          -219 -610 rlineto
          87 hlineto
          endchar
        </CharString>
        <CharString name="six">
          -4 -5 callgsubr
          421 220 rmoveto
          2 23 1 21 20 vvcurveto
          100 -30 60 -111 -50 -35 -17 -14 -23 vhcurveto
          194 22 37 30 73 hhcurveto
          43 36 -10 -6 26 hvcurveto
          6 71 rlineto
          5 -17 -47 10 -31 hhcurveto
          -136 -76 -52 -275 -24 hvcurveto
          -2 -23 -6 -117 -17 vvcurveto
          -194 51 -36 94 112 70 56 171 15 vhcurveto
          -151 152 rmoveto
          54 15 -28 -61 -137 -29 -81 -80 -45 -24 17 117 37 2 48 5 61 hvcurveto
          7 14 37 20 51 hhcurveto
          endchar
        </CharString>
        <CharString name="slash">
          -22 callgsubr
          380 810 rmoveto
          -79 hlineto
          -315 -920 rlineto
          78 hlineto
          endchar
        </CharString>
        <CharString name="space">
          -197 endchar
        </CharString>
        <CharString name="sterling">
          13 0 73 267 73 219 75 hstem
          254 476 rmoveto
          136 13 19 20 80 hhcurveto
          16 45 -6 -6 28 hvcurveto
          6 74 rlineto
          6 -31 -41 7 -23 hhcurveto
          -133 -48 -41 -197 -18 hvcurveto
          -5 -56 rlineto
          -70 hlineto
          -7 -73 -28 callsubr
          -24 -267 rlineto
          -69 -38 callsubr
          355 hlineto
          -62 callgsubr
          -199 hlineto
          24 267 rlineto
          128 -26 callsubr
          -129 hlineto
          endchar
        </CharString>
        <CharString name="summation">
          13 -170 74 721 75 hstem
          400 -170 rmoveto
          7 74 rlineto
          -299 hlineto
          209 363 -131 358 rlineto
          272 hlineto
          -4 callgsubr
          -360 hlineto
          -9 -95 126 -338 -198 -343 -9 -94 rlineto
          endchar
        </CharString>
        <CharString name="t">
          -136 -6 72 359 75 120 -20 hstem
          318 425 -60 callsubr
          -116 hlineto
          11 120 -80 callsubr
          -11 -120 rlineto
          -65 -77 callsubr
          65 hlineto
          -25 -280 rlineto
          -1 -12 -2 -18 -9 vvcurveto
          -65 29 -47 76 36 38 7 4 13 vhcurveto
          6 70 rlineto
          -4 -15 -24 -5 -28 hhcurveto
          -37 -8 28 19 3 1 16 1 10 hvcurveto
          25 283 rlineto
          endchar
        </CharString>
        <CharString name="thorn">
          42 -26 callgsubr
          193 -20 -59 callgsubr
          -55 -38 -22 -30 -27 vhcurveto
          22 245 -80 callsubr
          -76 -870 -25 callsubr
          -32 callgsubr
        </CharString>
        <CharString name="three">
          -62 -177 73 251 73 229 73 hstem
          332 49 rmoveto
          75 -32 60 -44 3 vhcurveto
          61 21 30 48 109 vvcurveto
          120 -60 37 -87 -51 -60 -14 -2 -11 vhcurveto
          1 callgsubr
          6 30 51 10 44 hhcurveto
          48 18 -28 -67 -33 -6 -101 -90 hvcurveto
          -72 hlineto
          1 callgsubr
          82 hlineto
          59 18 -27 -61 -103 -34 -60 -62 -44 -62 12 5 -23 -14 callsubr
          -2 8 72 -15 49 hhcurveto
          117 56 48 146 13 hvcurveto
          1 8 1 17 7 vvcurveto
          endchar
        </CharString>
        <CharString name="threequarters">
          -10 callsubr
          19 63 175 63 141 63 105 -20 hstem
          338 -90 callsubr
          450 -224 -69 callsubr
          -43 693 -66 callsubr
        </CharString>
        <CharString name="threesuperior">
          -47 200 63 175 63 141 63 hstem
          331 -90 callsubr
          endchar
        </CharString>
        <CharString name="tilde">
          -107 591 -14 callgsubr
          hintmask 01000000
          76 594 -55 callgsubr
          hintmask 10000000
          -96 callsubr
          hintmask 01000000
          -83 callgsubr
        </CharString>
        <CharString name="trademark">
          283 215 -21 447 59 hstem
          681 194 rmoveto
          45 506 rlineto
          -113 hlineto
          -81 -237 -41 237 rlineto
          -400 hlineto
          -5 -59 rlineto
          116 hlineto
          -40 -447 rlineto
          68 hlineto
          40 447 rlineto
          100 hlineto
          -40 -447 rlineto
          65 hlineto
          40 450 54 -283 rlineto
          63 hlineto
          103 283 -40 -450 rlineto
          endchar
        </CharString>
        <CharString name="two">
          -47 0 76 373 73 hstem
          350 hmoveto
          6 76 rlineto
          -203 hlineto
          133 107 rlineto
          64 52 25 55 91 vvcurveto
          83 -48 58 -111 -53 -58 -13 -3 -13 vhcurveto
          -6 callgsubr
          6 24 59 12 42 hhcurveto
          55 26 -29 -41 -71 -24 -34 -63 -52 hvcurveto
          -162 -134 -7 -88 rlineto
          endchar
        </CharString>
        <CharString name="twosuperior">
          -47 205 65 371 64 hstem
          319 205 -79 callgsubr
          endchar
        </CharString>
        <CharString name="u">
          34 -7 72 435 -20 hstem
          -92 callgsubr
          -88 callsubr
          -86 callgsubr
          endchar
        </CharString>
        <CharString name="uacute">
          -100 callsubr
          117 80 -88 callgsubr
        </CharString>
        <CharString name="ucircumflex">
          -100 callsubr
          249 80 -91 callgsubr
        </CharString>
        <CharString name="udieresis">
          34 -7 72 -44 -57 callsubr
          115 80 -102 callgsubr
          236 95 -101 callgsubr
        </CharString>
        <CharString name="ugrave">
          -100 callsubr
          169 80 -84 callsubr
        </CharString>
        <CharString name="underscore">
          53 -170 75 hstem
          482 -170 -60 callsubr
          -503 -36 callsubr
        </CharString>
        <CharString name="uni00A0">
          -197 endchar
        </CharString>
        <CharString name="uni00AD">
          -37 callsubr
        </CharString>
        <CharString name="uni02C9">
          -35 callgsubr
        </CharString>
        <CharString name="uni03BC">
          -90 callgsubr
        </CharString>
        <CharString name="uni2215">
          -42 callgsubr
        </CharString>
        <CharString name="uni2219">
          -87 callsubr
        </CharString>
        <CharString name="uni2224">
          -87 callsubr
        </CharString>
        <CharString name="uni25AF">
          -61 callgsubr
        </CharString>
        <CharString name="v">
          5 -9 callsubr
          460 -21 callsubr
          -89 hlineto
          -143 -431 -71 431 rlineto
          -89 hlineto
          92 -25 callgsubr
          123 hlineto
          endchar
        </CharString>
        <CharString name="w">
          213 -9 callsubr
          663 -21 callsubr
          -84 hlineto
          -119 -436 -53 346 -80 callsubr
          -120 -346 -42 436 -1 callsubr
          57 -25 callgsubr
          128 hlineto
          92 271 40 -271 rlineto
          131 hlineto
          endchar
        </CharString>
        <CharString name="x">
          7 -9 callsubr
          419 hmoveto
          -126 262 156 238 rlineto
          -94 hlineto
          -102 -163 -70 163 rlineto
          -98 hlineto
          112 -242 -167 -258 rlineto
          95 hlineto
          116 183 79 -183 rlineto
          endchar
        </CharString>
        <CharString name="y">
          -9 callgsubr
          -95 callgsubr
          endchar
        </CharString>
        <CharString name="yacute">
          -9 callgsubr
          235 -20 -95 callgsubr
          50 624 -88 callgsubr
        </CharString>
        <CharString name="ydieresis">
          -9 callgsubr
          115 80 -95 callgsubr
          148 639 -101 callgsubr
        </CharString>
        <CharString name="yen">
          13 21 -21 115 75 75 75 360 -20 hstem
          409 115 -60 callsubr
          -130 hlineto
          -4 callgsubr
          130 hlineto
          -50 callsubr
          -127 hlineto
          200 360 rlineto
          -93 hlineto
          -145 -273 -98 273 rlineto
          -94 hlineto
          135 -360 rlineto
          -128 -77 callsubr
          130 -8 callgsubr
          -130 -77 callsubr
          130 hlineto
          -10 -115 rlineto
          90 hlineto
          10 -8 callsubr
          endchar
        </CharString>
        <CharString name="z">
          -54 0 74 352 74 -58 callgsubr
          endchar
        </CharString>
        <CharString name="zcaron">
          -54 0 74 352 74 214 -20 -58 callgsubr
          -23 640 -66 callgsubr
        </CharString>
        <CharString name="zero">
          19 -7 72 385 72 hstem
          343 259 rmoveto
          -135 -12 -18 -59 -80 hhcurveto
          -62 -18 34 78 23 1 28 3 31 hvcurveto
          130 12 19 61 79 hhcurveto
          61 19 -36 -77 -22 -1 -27 -3 -29 hvcurveto
          86 5 rmoveto
          2 24 1 22 22 vvcurveto
          113 -34 77 -125 -162 -25 -108 -150 -13 vhcurveto
          -7 -4 -64 -7 vvcurveto
          -117 34 -76 124 160 28 111 160 14 vhcurveto
          endchar
        </CharString>
      <CharString index="0">
        -43 12 32 -19 42 hhcurveto
        19 hlineto
        5 65 rlineto
        -26 -13 14 24 hvcurveto
        18 2 13 2 vvcurveto
        32 349 rlineto
        10 -31 -60 12 -37 0 callsubr
        -71 -45 callgsubr
        147 -163 rmoveto
        -46 -17 32 66 180 46 92 93 24 17 -2 -2 13 hvcurveto
        -23 -259 rlineto
        -53 -5 -33 -54 -69 hhcurveto
        return
      </CharString>
      <CharString index="1">
        -96 callgsubr
        38 61 87 -105 callsubr
        return
      </CharString>
      <CharString index="2">
        -15 callsubr
        -93 callsubr
        hintmask 01110000
        -107 callgsubr
        return
      </CharString>
      <CharString index="3">
        rmoveto
        -99 callgsubr
        -115 hmoveto
        -99 callgsubr
        return
      </CharString>
      <CharString index="4">
        rmoveto
        -87 hlineto
        -47 -534 rlineto
        -70 -6 -43 -30 -60 hhcurveto
        -56 -36 26 60 5 1 14 1 16 hvcurveto
        45 513 -1 callsubr
        -44 -505 rlineto
        -1 -9 -1 -18 -10 vvcurveto
        -115 73 -50 99 120 72 57 135 12 vhcurveto
        endchar
      </CharString>
      <CharString index="5">
        -15 callsubr
        -92 callgsubr
        hintmask 01110000
        -88 callsubr
        hintmask 10110000
        -86 callgsubr
        return
      </CharString>
      <CharString index="6">
        -104 callgsubr
        endchar
      </CharString>
      <CharString index="7">
        -53 callsubr
        208 -20 -107 callsubr
        return
      </CharString>
      <CharString index="8">
        7 80 -80 callsubr
        -7 -80 rlineto
        return
      </CharString>
      <CharString index="9">
        2 21 1 20 18 vvcurveto
        91 -27 57 -95 -120 -24 -82 -125 -11 vhcurveto
        -2 -21 -1 -20 -19 vvcurveto
        -93 27 -62 94 120 25 90 125 11 vhcurveto
        return
      </CharString>
      <CharString index="10">
        -75 callgsubr
        -37 15 92 hvcurveto
        36 vlineto
        -3 28 20 -1 26 hhcurveto
        118 77 48 118 hvcurveto
        return
      </CharString>
      <CharString index="11">
        -70 callgsubr
        -71 -30 46 126 13 5 85 1 17 hvcurveto
        220 20 return
      </CharString>
      <CharString index="12">
        hstem
        461 -21 callsubr
        -89 hlineto
        -133 -413 -81 413 rlineto
        -90 hlineto
        112 -25 callgsubr
        20 hlineto
        -21 -55 rlineto
        -29 -11 -13 -16 -20 hhcurveto
        -20 -18 2 2 -14 -14 callsubr
        -2 12 23 -4 21 hhcurveto
        81 28 53 78 27 hvcurveto
        return
      </CharString>
      <CharString index="13">
        rmoveto
        61 12 -32 -38 -66 -37 -26 -93 -19 -15 1 2 -20 hvcurveto
        121 13 39 38 59 hhcurveto
        return
      </CharString>
      <CharString index="14">
        rmoveto
        -2 -20 -1 -20 -18 vvcurveto
        -113 35 -64 93 69 42 29 40 27 vhcurveto
        return
      </CharString>
      <CharString index="15">
        108 -21 callsubr
        -27 -320 rlineto
        -1 -18 -1 -16 -16 vvcurveto
        -86 27 -51 101 58 37 23 37 27 vhcurveto
        return
      </CharString>
      <CharString index="16">
        rmoveto
        -101 -7 callgsubr
        -88 hlineto
        -124 -135 rlineto
        96 hlineto
        68 84 52 -84 rlineto
        endchar
      </CharString>
      <CharString index="17">
        34 -32 callsubr
        -44 -57 callsubr
        hstemhm
        hintmask 11010000
        162 132 rmoveto
        4 2 24 1 12 vhcurveto
        28 328 -80 callsubr
        -58 -670 0 callgsubr
        15 171 rlineto
        -4 15 19 -4 23 hhcurveto
        58 37 23 37 27 hvcurveto
        hintmask 10110000
        -88 callsubr
        hintmask 11010000
        -61 -5 -25 -85 -78 hhcurveto
        -54 -11 28 39 hvcurveto
        endchar
      </CharString>
      <CharString index="18">
        -55 callgsubr
        hintmask 11100000
        -96 callsubr
        hintmask 11010000
        -83 callgsubr
      </CharString>
      <CharString index="19">
        rmoveto
        139 -7 callgsubr
        -109 hlineto
        -116 -135 rlineto
        endchar
      </CharString>
      <CharString index="20">
        rmoveto
        114 -56 39 -85 18 vhcurveto
        -52 11 -17 18 53 vvcurveto
        105 50 39 60 40 41 -9 -8 33 vhcurveto
        -33 callgsubr
        8 -28 -42 9 -38 hhcurveto
        -125 -87 -57 -166 -96 45 -43 93 -20 hvcurveto
        46 -10 25 -21 -69 vvcurveto
        -107 -34 -52 -78 -54 -40 9 8 -30 vhcurveto
        -7 -74 rlineto
        -9 34 44 -7 40 hhcurveto
        146 69 64 180 hvcurveto
        endchar
      </CharString>
      <CharString index="21">
        -61 -5 -25 -85 -78 hhcurveto
        -53 -11 27 39 12 1 13 1 14 hvcurveto
        28 330 rlineto
        return
      </CharString>
      <CharString index="22">
        726 rmoveto
        142 -8 callsubr
        -111 hlineto
        -114 -115 rlineto
        return
      </CharString>
      <CharString index="23">
        77 75 hhcurveto
        58 16 -32 -45 -9 -2 -19 -1 -10 -40 callsubr
        27 320 rlineto
        1 15 1 15 13 vvcurveto
        91 -32 53 -104 return
      </CharString>
      <CharString index="24">
        -39 -24 39 -47 hhcurveto
        -26 -31 -8 -25 -32 hvcurveto
        endchar
      </CharString>
      <CharString index="25">
        hhcurveto
        71 31 -38 -123 -34 -3 -39 -4 -47 hvcurveto
        return
      </CharString>
      <CharString index="26">
        -7 -31 -36 -10 -50 hhcurveto
        -42 -28 15 95 18 1 20 2 24 hvcurveto
        148 13 27 44 58 hhcurveto
        49 32 -7 -9 34 hvcurveto
        6 75 return
      </CharString>
      <CharString index="27">
        205 rmoveto
        6 66 rlineto
        -72 hlineto
        38 429 rlineto
        -83 hlineto
        -92 -38 -6 -71 100 38 -32 -358 rlineto
        -88 hlineto
        -6 -66 rlineto
        return
      </CharString>
      <CharString index="28">
        rmoveto
        6 65 rlineto
        -164 hlineto
        112 140 rlineto
        54 73 19 33 72 vvcurveto
        72 -41 45 -83 -40 -44 -10 -1 -9 vhcurveto
        -5 -65 rlineto
        5 24 37 7 32 hhcurveto
        41 14 -17 -31 -67 -14 -23 -53 -70 hvcurveto
        -125 -157 -7 -71 rlineto
        return
      </CharString>
      <CharString index="29">
        hhcurveto
        -134 -38 -55 -94 -8 hvcurveto
        -5 -58 -97 callsubr
        return
      </CharString>
      <CharString index="30">
        rmoveto
        -93 hlineto
        -158 -291 -106 291 rlineto
        -94 hlineto
        146 -375 -28 -325 rlineto
        90 hlineto
        28 325 rlineto
        return
      </CharString>
      <CharString index="31">
        hstem
        155 hmoveto
        -74 callsubr
        -43 -500 rlineto
        return
      </CharString>
      <CharString index="32">
        7 72 rlineto
        -6 -30 -41 -11 -65 hhcurveto
        -37 return
      </CharString>
      <CharString index="33">
        hmoveto
        -67 callsubr
        return
      </CharString>
      <CharString index="34">
        155 hmoveto
        25 296 rlineto
        62 5 32 -84 callgsubr
        -61 -40 -25 -40 -29 vhcurveto
        return
      </CharString>
      <CharString index="35">
        -212 21 -16 callsubr
        -76 callgsubr
        return
      </CharString>
      <CharString index="36">
        -74 callgsubr
        rlineto
        return
      </CharString>
      <CharString index="37">
        rmoveto
        -215 -18 -37 -72 -90 hhcurveto
        return
      </CharString>
      <CharString index="38">
        -171 -48 -114 -235 -20 return
      </CharString>
      <CharString index="39">
        346 252 -101 callsubr
        return
      </CharString>
      <CharString index="40">
        -33 callgsubr
        -328 -64 callsubr
        return
      </CharString>
      <CharString index="41">
        rmoveto
        103 -135 rlineto
        88 hlineto
        122 -7 callgsubr
        -96 hlineto
        -67 -84 -53 84 rlineto
        endchar
      </CharString>
      <CharString index="42">
        rmoveto
        -25 -2 -7 -24 -33 hhcurveto
        -26 -7 21 21 26 9 30 32 27 7 -18 -22 hvcurveto
        return
      </CharString>
      <CharString index="43">
        41 -7 72 -65 65 -20 callgsubr
        return
      </CharString>
      <CharString index="44">
        -61 -44 callgsubr
        return
      </CharString>
      <CharString index="45">
        6 73 rlineto
        return
      </CharString>
      <CharString index="46">
        45 0 72 556 72 hstem
        55 hmoveto
        372 hlineto
        61 -21 callgsubr
        -372 hlineto
        20 -628 rmoveto
        48 556 rlineto
        222 hlineto
        -48 -556 rlineto
        endchar
      </CharString>
      <CharString index="47">
        474 -41 callgsubr
        193 -47 callsubr
        return
      </CharString>
      <CharString index="48">
        hstem
        140 -170 rmoveto
        14 167 rlineto
        -2 18 19 -2 19 hhcurveto
        164 55 75 204 18 hvcurveto
        2 18 1 28 16 vvcurveto
        108 -36 65 -100 return
      </CharString>
      <CharString index="49">
        hstem
        378 411 rmoveto
        8 89 rlineto
        -288 hlineto
        -6 -74 rlineto
        195 hlineto
        -246 -346 -6 -80 rlineto
        298 hlineto
        6 74 rlineto
        -204 hlineto
        return
      </CharString>
      <CharString index="50">
        -1 -5 -11 -4 -11 hhcurveto
        -22 -8 9 24 return
      </CharString>
      <CharString index="51">
        452 hmoveto
        61 -21 callgsubr
        -81 hlineto
        -55 -626 -99 626 rlineto
        -142 -64 callsubr
        81 hlineto
        54 626 99 -626 rlineto
        return
      </CharString>
      <CharString index="52">
        rmoveto
        19 23 26 -7 callsubr
        return
      </CharString>
      <CharString index="53">
        rmoveto
        8 88 rlineto
        -323 hlineto
        -7 -74 rlineto
        234 hlineto
        -304 -538 -7 -88 rlineto
        336 hlineto
        6 74 rlineto
        -246 hlineto
        endchar
      </CharString>
      <CharString index="54">
        107 207 -71 207 -4 callsubr
        44 -207 -82 -207 rlineto
        return
      </CharString>
      <CharString index="55">
        11 0 73 252 73 229 73 return
      </CharString>
      <CharString index="56">
        36 26 21 4 3 14 vhcurveto
        6 70 rlineto
        hintmask 10100000
        -57 callgsubr
        hvcurveto
        4 1 5 5 vvcurveto
        return
      </CharString>
      <CharString index="57">
        100 rlineto
        -100 hlineto
        return
      </CharString>
      <CharString index="58">
        32 -7 callsubr
        hintmask 10100000
        56 29 -39 56 hhcurveto
        37 36 13 20 32 hvcurveto
        7 78 rlineto
        -19 -30 -31 -17 -35 hhcurveto
        return
      </CharString>
      <CharString index="59">
        rmoveto
        -92 callsubr
        return
      </CharString>
      <CharString index="60">
        rmoveto
        -8 -90 rlineto
        95 hlineto
        8 90 44 157 -4 callsubr
        return
      </CharString>
      <CharString index="61">
        -55 callsubr
        hstem
        return
      </CharString>
      <CharString index="62">
        -82 -197 -18 hvcurveto
        return
      </CharString>
      <CharString index="63">
        -700 rlineto
        return
      </CharString>
      <CharString index="64">
        -60 callgsubr
        6 -10 callgsubr
        55 hlineto
        return
      </CharString>
      <CharString index="65">
        -227 -79 -21 910 -20 hstem
        375 810 -66 callsubr
      </CharString>
      <CharString index="66">
        -21 247 -20 hstem
        return
      </CharString>
      <CharString index="67">
        -140 0 73 554 73 return
      </CharString>
      <CharString index="68">
        -212 -46 callsubr
        return
      </CharString>
      <CharString index="69">
        90 rlineto
        -95 hlineto
        return
      </CharString>
      <CharString index="70">
        844 rmoveto
        103 -115 rlineto
        88 hlineto
        122 -8 callsubr
        -96 hlineto
        -66 -67 -54 67 rlineto
        return
      </CharString>
      <CharString index="71">
        93 275 75 hstem
        479 275 -75 callsubr
        endchar
      </CharString>
      <CharString index="72">
        605 70 hstem
        332 605 rmoveto
        7 70 rlineto
        -255 hlineto
        -7 -70 rlineto
        endchar
      </CharString>
      <CharString index="73">
        rmoveto
        8 -38 callgsubr
        -8 -90 return
      </CharString>
      <CharString index="74">
        7 73 rlineto
        return
      </CharString>
      <CharString index="75">
        -30 -21 1 2 -16 hvcurveto
        21 232 rlineto
        58 5 30 77 78 hhcurveto
        endchar
      </CharString>
      <CharString index="76">
        275 -60 callsubr
        return
      </CharString>
      <CharString index="77">
        -12 callgsubr
        -53 -140 rlineto
        68 hlineto
        return
      </CharString>
      <CharString index="78">
        rlineto
        -70 -11 callgsubr
        return
      </CharString>
      <CharString index="79">
        rlineto
        -87 -64 callsubr
        return
      </CharString>
      <CharString index="80">
        rlineto
        0 60 4 37 49 35 -27 -139 -32 -2 -37 -4 -45 vhcurveto
        return
      </CharString>
      <CharString index="81">
        -32 callsubr
        -20 callgsubr
        return
      </CharString>
      <CharString index="82">
        -500 rlineto
        return
      </CharString>
      <CharString index="83">
        -42 -32 -56 hhcurveto
        -94 hlineto
        25 282 rlineto
        0 39 6 55 61 return
      </CharString>
      <CharString index="84">
        -19 callgsubr
        endchar
      </CharString>
      <CharString index="85">
        -89 -21 920 -20 hstem
        return
      </CharString>
      <CharString index="86">
        700 rlineto
        return
      </CharString>
      <CharString index="87">
        370 72 return
      </CharString>
      <CharString index="88">
        7 -38 callgsubr
        -7 -90 -44 -10 callgsubr
        65 hlineto
        return
      </CharString>
      <CharString index="89">
        100 -12 callgsubr
        rlineto
        return
      </CharString>
      <CharString index="90">
        rlineto
        -80 hlineto
        return
      </CharString>
      <CharString index="91">
        -7 0 vhcurveto
        -63 callgsubr
        return
      </CharString>
      <CharString index="92">
        601 -21 135 -20 hstem
        return
      </CharString>
      <CharString index="93">
        70 -31 70 hstemhm
        return
      </CharString>
      <CharString index="94">
        rmoveto
        -120 hlineto
        -116 -147 rlineto
        76 hlineto
        return
      </CharString>
      <CharString index="95">
        hstem
        155 -74 callgsubr
        return
      </CharString>
      <CharString index="96">
        hlineto
        -43 -25 callgsubr
        return
      </CharString>
      <CharString index="97">
        -157 rlineto
        return
      </CharString>
      <CharString index="98">
        6 -175 75 121 -57 callsubr
        return
      </CharString>
      <CharString index="99">
        hlineto
        -6 callgsubr
        return
      </CharString>
      <CharString index="100">
        135 rlineto
        return
      </CharString>
      <CharString index="101">
        -7 -75 rlineto
        return
      </CharString>
      <CharString index="102">
        -7 72 307 72 193 70 hstem
        return
      </CharString>
      <CharString index="103">
        7 75 rlineto
        return
      </CharString>
      <CharString index="104">
        479 -31 callgsubr
        return
      </CharString>
      <CharString index="105">
        -137 -99 -21 940 -20 hstem
        return
      </CharString>
      <CharString index="106">
        -7 72 -20 callgsubr
        return
      </CharString>
      <CharString index="107">
        rlineto
        85 hlineto
        return
      </CharString>
      <CharString index="108">
        -7 -73 rlineto
        return
      </CharString>
</ttFont>
